<svg width="463" height="363" viewBox="0 0 463 363" fill="none" xmlns="http://www.w3.org/2000/svg">
<path fill-rule="evenodd" clip-rule="evenodd" d="M36.8858 361.48H5.08182C2.45082 361.48 0.319824 359.348 0.319824 356.718V144.181C0.319824 141.551 2.45082 139.419 5.08182 139.419H36.8858V361.48Z" fill="#AEC3FF"/>
<path fill-rule="evenodd" clip-rule="evenodd" d="M124.31 361.48H36.8857V139.419H124.31C126.94 139.419 129.073 141.551 129.073 144.181V356.718C129.073 359.348 126.94 361.48 124.31 361.48" fill="#D2DCFF"/>
<path fill-rule="evenodd" clip-rule="evenodd" d="M0.319824 200.847H36.8858V196.769H0.319824V200.847Z" fill="#86A2E2"/>
<path fill-rule="evenodd" clip-rule="evenodd" d="M36.8857 200.847H129.073V196.769H36.8857V200.847Z" fill="#AEC3FF"/>
<path fill-rule="evenodd" clip-rule="evenodd" d="M45.8538 189.92H45.4688C44.8288 189.92 44.3088 189.4 44.3088 188.76V174.678C44.3088 174.038 44.8288 173.518 45.4688 173.518H45.8538C46.4948 173.518 47.0138 174.038 47.0138 174.678V188.76C47.0138 189.4 46.4948 189.92 45.8538 189.92" fill="#86A2E2"/>
<path fill-rule="evenodd" clip-rule="evenodd" d="M45.8538 240.936H45.4688C44.8288 240.936 44.3088 240.416 44.3088 239.775V210.911C44.3088 210.27 44.8288 209.751 45.4688 209.751H45.8538C46.4948 209.751 47.0138 210.27 47.0138 210.911V239.775C47.0138 240.416 46.4948 240.936 45.8538 240.936" fill="#86A2E2"/>
<path fill-rule="evenodd" clip-rule="evenodd" d="M397.202 303.964C409.078 282.221 371.589 271.996 362.551 280.621C353.514 289.246 383.475 329.096 397.202 303.964" fill="#FE9ECC"/>
<path fill-rule="evenodd" clip-rule="evenodd" d="M412.963 297.327C436.269 297.327 425.722 255.643 415.758 255.643C403.265 255.643 386.038 297.327 412.963 297.327" fill="#FE9ECC"/>
<path fill-rule="evenodd" clip-rule="evenodd" d="M430.926 312.447C450.14 328.088 467.027 293.092 460.195 282.633C453.362 272.174 408.718 294.368 430.926 312.447" fill="#FE9ECC"/>
<path fill-rule="evenodd" clip-rule="evenodd" d="M406.425 322.797C403.182 315.293 398.436 308.301 392.317 302.017C381.907 291.327 370.959 286.313 370.85 286.264C370.524 286.116 370.14 286.261 369.993 286.587C369.846 286.913 369.99 287.297 370.317 287.444C370.424 287.492 381.183 292.426 391.421 302.954C397.421 309.124 402.072 315.982 405.247 323.337C405.608 324.171 405.942 325.015 406.264 325.862H407.649C407.267 324.832 406.862 323.809 406.425 322.797" fill="#FF78BA"/>
<path fill-rule="evenodd" clip-rule="evenodd" d="M415.179 264.191C415.221 263.836 414.967 263.513 414.613 263.471C414.257 263.427 413.935 263.682 413.893 264.038C413.851 264.391 410.583 292.326 410.75 325.862H412.045C411.878 292.413 415.137 264.544 415.179 264.191" fill="#FF78BA"/>
<path fill-rule="evenodd" clip-rule="evenodd" d="M453.723 287.316C453.524 287.018 453.122 286.938 452.826 287.136C452.732 287.199 443.384 293.487 433.767 303.829C428.529 309.461 422.575 317.012 418.212 325.862H419.661C423.924 317.403 429.646 310.164 434.695 304.733C444.211 294.495 453.452 288.275 453.544 288.213C453.842 288.015 453.922 287.613 453.723 287.316" fill="#FF78BA"/>
<path fill-rule="evenodd" clip-rule="evenodd" d="M412.045 325.862H410.75H407.649H406.264H388.187C387.491 325.862 386.998 326.541 387.214 327.202L388.356 330.703L388.933 332.474L397.194 357.821C397.419 358.508 398.06 358.974 398.783 358.974H428.561C429.284 358.974 429.926 358.508 430.149 357.821L438.411 332.474L438.988 330.703L440.13 327.202C440.346 326.541 439.854 325.862 439.157 325.862H419.66H418.212H412.045Z" fill="#D2DCFF"/>
<path fill-rule="evenodd" clip-rule="evenodd" d="M438.988 330.703L438.411 332.474H388.932L388.355 330.703H438.988Z" fill="#AEC3FF"/>
<path fill-rule="evenodd" clip-rule="evenodd" d="M331.537 224.438L314.587 361.482H311.222L328.172 224.438H331.537Z" fill="#D2DCFF"/>
<path fill-rule="evenodd" clip-rule="evenodd" d="M258.712 276.418L248.451 361.481H245.087L255.347 276.418H258.712Z" fill="#D2DCFF"/>
<path fill-rule="evenodd" clip-rule="evenodd" d="M213.37 276.417L212.216 285.983L203.11 361.48H199.745L208.896 285.61L210.005 276.417H213.37Z" fill="#D2DCFF"/>
<path fill-rule="evenodd" clip-rule="evenodd" d="M258.712 361.48H255.347L253.928 349.715L252.245 335.767L246.711 289.884L245.087 276.417H248.452L250.123 290.269L253.928 321.816L255.61 335.764L258.712 361.48Z" fill="#D2DCFF"/>
<path fill-rule="evenodd" clip-rule="evenodd" d="M304.054 361.48H300.688L292.725 295.457H292.724L290.428 276.417H293.794L296.135 295.824L304.054 361.48Z" fill="#D2DCFF"/>
<path fill-rule="evenodd" clip-rule="evenodd" d="M210.17 271.009H213.535V219.555H210.17V271.009Z" fill="#D2DCFF"/>
<path fill-rule="evenodd" clip-rule="evenodd" d="M255.897 271.009H259.261V219.555H255.897V271.009Z" fill="#D2DCFF"/>
<path fill-rule="evenodd" clip-rule="evenodd" d="M295.206 271.009H248.971C250.465 271.009 251.675 272.22 251.675 273.713C251.675 275.207 250.465 276.417 248.971 276.417H295.206C296.699 276.417 297.91 275.207 297.91 273.713C297.91 272.22 296.699 271.009 295.206 271.009" fill="#D2DCFF"/>
<path fill-rule="evenodd" clip-rule="evenodd" d="M251.675 273.713V273.713C251.675 272.22 250.465 271.009 248.971 271.009H213.607H209.051C207.558 271.009 206.347 272.22 206.347 273.713C206.347 275.207 207.558 276.417 209.051 276.417H213.607H248.971C250.465 276.417 251.675 275.207 251.675 273.713" fill="#86A2E2"/>
<path fill-rule="evenodd" clip-rule="evenodd" d="M260.667 219.555H208.764C205.939 219.555 203.651 217.266 203.651 214.443V185.945C203.651 183.121 205.939 180.832 208.764 180.832H260.667C263.491 180.832 265.779 183.121 265.779 185.945V214.443C265.779 217.266 263.491 219.555 260.667 219.555" fill="#D2DCFF"/>
<path fill-rule="evenodd" clip-rule="evenodd" d="M213.37 276.417L212.216 285.983C211.001 285.847 209.89 285.722 208.896 285.61L210.005 276.417H213.37Z" fill="#AEC3FF"/>
<path fill-rule="evenodd" clip-rule="evenodd" d="M248.452 276.417L250.123 290.27C248.98 290.142 247.842 290.013 246.711 289.885L245.087 276.417H248.452Z" fill="#AEC3FF"/>
<path fill-rule="evenodd" clip-rule="evenodd" d="M296.135 295.824C295.048 295.708 293.91 295.585 292.725 295.457H292.724L290.428 276.417H293.794L296.135 295.824Z" fill="#AEC3FF"/>
<path fill-rule="evenodd" clip-rule="evenodd" d="M210.169 219.555H213.534V226.661L210.169 226.289V219.555Z" fill="#AEC3FF"/>
<path fill-rule="evenodd" clip-rule="evenodd" d="M259.261 219.555V231.723L255.897 231.351V219.555H259.261Z" fill="#AEC3FF"/>
<path fill-rule="evenodd" clip-rule="evenodd" d="M265.843 129.256C261.889 135.797 249.804 145.209 231.834 139.464V139.466C231.779 139.458 231.722 139.452 231.663 139.452C227.389 139.452 227.09 151.341 234.284 152.029C234.391 152.378 234.499 152.709 234.611 153.02V172.354H250.837V164.839C251.968 165.158 253.053 165.341 254.045 165.341C260.757 165.341 272.425 154.986 272.691 138.676C270.894 138.271 265.843 133.82 265.843 129.256" fill="#FCBEB7"/>
<path fill-rule="evenodd" clip-rule="evenodd" d="M254.045 165.341C253.053 165.341 251.968 165.158 250.837 164.839V172.354H234.61V153.02C234.499 152.709 234.391 152.378 234.284 152.029C227.09 151.341 227.389 139.452 231.663 139.452C231.722 139.452 231.778 139.458 231.834 139.466V139.465C249.804 145.209 261.889 135.797 265.843 129.256C265.843 133.82 270.894 138.271 272.691 138.676C272.425 154.987 260.757 165.341 254.045 165.341M276.099 133.931C276.099 123.188 266.624 114.484 252.416 114.484C240.608 114.484 236.55 121 236.55 121C236.55 121 225.39 123.412 225.39 137.281V172.354H243.729H244.663H258.207H272.931V143.47C274.094 142.042 276.099 138.865 276.099 133.931" fill="#311643"/>
<path fill-rule="evenodd" clip-rule="evenodd" d="M221.902 170.929L234.611 165.041L241.586 165.225L250.838 165.661L264.134 169.699V186.664H221.902V170.929Z" fill="#FCBEB7"/>
<path fill-rule="evenodd" clip-rule="evenodd" d="M264.134 187.703V169.699L250.837 165.661V164.839C247.077 163.778 242.803 161.208 239.665 158.81L264.134 187.703Z" fill="#F9AFAB"/>
<path fill-rule="evenodd" clip-rule="evenodd" d="M246.597 148.02C246.597 150.465 244.616 152.447 242.17 152.447C239.726 152.447 237.744 150.465 237.744 148.02C237.744 145.575 239.726 143.593 242.17 143.593C244.616 143.593 246.597 145.575 246.597 148.02" fill="#F49795"/>
<path fill-rule="evenodd" clip-rule="evenodd" d="M272.121 144.345C271.559 147.318 270.619 150.029 269.431 152.441C267.09 152.325 265.227 150.39 265.227 148.02C265.227 145.575 267.209 143.594 269.653 143.594C270.567 143.594 271.416 143.87 272.121 144.345" fill="#F49795"/>
<path fill-rule="evenodd" clip-rule="evenodd" d="M264.633 146.282C261.627 146.282 259.181 143.836 259.181 140.829C259.181 137.823 261.627 135.377 264.633 135.377C267.64 135.377 270.086 137.823 270.086 140.829C270.086 143.836 267.64 146.282 264.633 146.282M248.033 146.282C245.027 146.282 242.581 143.836 242.581 140.829C242.581 137.823 245.027 135.377 248.033 135.377C251.04 135.377 253.486 137.823 253.486 140.829C253.486 143.836 251.04 146.282 248.033 146.282M264.633 134.556C261.402 134.556 258.733 137.014 258.397 140.158C256.639 139.331 255.088 139.779 254.27 140.155C253.932 137.012 251.265 134.556 248.033 134.556C244.574 134.556 241.76 137.37 241.76 140.829C241.76 144.289 244.574 147.103 248.033 147.103C251.415 147.103 254.179 144.412 254.301 141.06C254.821 140.76 256.477 139.996 258.366 141.067C258.491 144.416 261.254 147.103 264.633 147.103C268.092 147.103 270.906 144.289 270.906 140.829C270.906 137.37 268.092 134.556 264.633 134.556" fill="white"/>
<path fill-rule="evenodd" clip-rule="evenodd" d="M264.638 144.841C264.143 144.841 263.742 144.44 263.742 143.946V142.274C263.742 141.779 264.143 141.378 264.638 141.378C265.132 141.378 265.533 141.779 265.533 142.274V143.946C265.533 144.44 265.132 144.841 264.638 144.841" fill="#311643"/>
<path fill-rule="evenodd" clip-rule="evenodd" d="M248.306 144.841C247.812 144.841 247.41 144.44 247.41 143.946V142.274C247.41 141.779 247.812 141.378 248.306 141.378C248.8 141.378 249.202 141.779 249.202 142.274V143.946C249.202 144.44 248.8 144.841 248.306 144.841" fill="#311643"/>
<path fill-rule="evenodd" clip-rule="evenodd" d="M254.696 155.474C253.098 155.474 252.01 154.873 251.351 154.326C250.52 153.636 250.175 152.883 250.161 152.851C250.067 152.644 250.16 152.402 250.366 152.308C250.572 152.216 250.814 152.307 250.908 152.513C250.955 152.614 252.09 154.994 255.386 154.613C255.612 154.586 255.815 154.748 255.842 154.973C255.867 155.198 255.706 155.402 255.481 155.428C255.207 155.459 254.945 155.474 254.696 155.474" fill="#311643"/>
<path fill-rule="evenodd" clip-rule="evenodd" d="M291.428 355.086L276.542 348.687L277.306 352.376L258.994 346.625V351.872C258.994 353.718 259.959 355.39 261.476 356.33L263.051 360.832C263.187 361.221 263.554 361.482 263.966 361.482C264.502 361.482 264.936 361.047 264.936 360.512V357.583L277.451 361.482H290.112C291.952 361.482 293.445 359.989 293.445 358.149C293.445 356.816 292.652 355.612 291.428 355.086" fill="#2F3D6C"/>
<path fill-rule="evenodd" clip-rule="evenodd" d="M323.889 355.086L309.003 348.687L309.766 352.376L291.454 346.625V351.872C291.454 353.718 292.419 355.39 293.937 356.33L295.511 360.832C295.648 361.221 296.015 361.482 296.427 361.482C296.962 361.482 297.397 361.047 297.397 360.512V357.583L309.912 361.482H322.573C324.413 361.482 325.906 359.989 325.906 358.149C325.906 356.816 325.113 355.612 323.889 355.086" fill="#2F3D6C"/>
<path fill-rule="evenodd" clip-rule="evenodd" d="M258.994 339.646L259.002 346.625L277.306 352.375L276.542 348.686L275.021 347.911L276.35 339.646H258.994Z" fill="#FCBEB7"/>
<path fill-rule="evenodd" clip-rule="evenodd" d="M291.454 339.646L291.463 346.625L309.766 352.375L309.003 348.686L307.482 347.913L308.811 339.646H291.454Z" fill="#FCBEB7"/>
<path fill-rule="evenodd" clip-rule="evenodd" d="M245.865 240.68V241.335C245.852 257.814 259.207 271.179 275.685 271.179H289.539L291.455 339.647H308.812L321.61 258.011C323.038 248.908 316 240.68 306.785 240.68H245.865Z" fill="#6277D7"/>
<path fill-rule="evenodd" clip-rule="evenodd" d="M288.347 263.13L289.538 271.179H287.01L288.347 263.13Z" fill="#4A5EA3"/>
<path fill-rule="evenodd" clip-rule="evenodd" d="M218.634 253.117V253.117C219.503 263.331 228.047 271.179 238.297 271.179H257.077L258.994 339.646H276.351L289.014 258.873C290.512 249.316 283.124 240.679 273.45 240.679H272.062L268.077 228.771H222.356L218.88 247.919C218.569 249.633 218.486 251.381 218.634 253.117" fill="#6277D7"/>
<path fill-rule="evenodd" clip-rule="evenodd" d="M245.322 179.008C248.403 179.008 250.868 176.04 252.531 173.034H234.955C237.635 176.032 241.306 179.008 245.322 179.008" fill="white"/>
<path fill-rule="evenodd" clip-rule="evenodd" d="M278.354 179.466L277.137 177.573C275.559 175.114 273.336 173.158 270.734 171.903C270.009 171.553 269.255 171.258 268.477 171.021L254.935 166.897C254.935 167.386 254.083 170.227 252.532 173.034C250.869 176.04 248.404 179.008 245.323 179.008C241.307 179.008 237.636 176.032 234.956 173.034C232.236 169.992 230.537 166.927 230.537 166.927L218.435 172.534C213.483 174.829 209.836 179.244 208.518 184.543L203.125 201.779C202.202 204.73 201.732 207.802 201.732 210.894V212.321C201.732 216.026 204.736 219.029 208.441 219.029H221.341L222.356 228.771H268.078L279.601 181.407L278.354 179.466Z" fill="#FE9ECC"/>
<path fill-rule="evenodd" clip-rule="evenodd" d="M245.774 183.284C243.232 183.284 240.645 182.511 238.086 180.985C236.053 179.774 234.034 178.089 232.082 175.976C228.768 172.389 226.75 168.728 226.729 168.691L227.41 168.376C227.429 168.412 229.386 171.961 232.64 175.481C234.543 177.539 236.506 179.176 238.475 180.348C240.916 181.801 243.371 182.538 245.774 182.538C248.042 182.538 250.085 181.781 251.846 180.288C253.271 179.08 254.521 177.39 255.56 175.263C257.345 171.608 257.892 167.836 257.897 167.799L258.639 168.025C258.617 168.18 258.071 171.815 256.238 175.575C255.154 177.799 253.84 179.574 252.336 180.852C250.434 182.466 248.227 183.284 245.774 183.284" fill="white"/>
<path fill-rule="evenodd" clip-rule="evenodd" d="M321.622 257.92C320.106 259.553 317.94 260.574 315.536 260.574C310.947 260.574 307.226 256.855 307.226 252.266C307.226 247.677 310.947 243.958 315.536 243.958C315.752 243.958 315.967 243.966 316.18 243.982C320.172 247.195 322.457 252.391 321.622 257.92" fill="#4A5EA3"/>
<path fill-rule="evenodd" clip-rule="evenodd" d="M289.205 256.214C287.801 258.811 285.053 260.574 281.894 260.574C277.306 260.574 273.586 256.855 273.586 252.266C273.586 247.677 277.306 243.958 281.894 243.958C282.341 243.958 282.779 243.993 283.207 244.062C286.835 246.931 289.148 251.348 289.205 256.214" fill="#4A5EA3"/>
<path fill-rule="evenodd" clip-rule="evenodd" d="M207.765 219.03H257.932V212.698L208.454 207.005C204.873 206.592 201.732 209.392 201.732 212.997C201.732 216.329 204.433 219.03 207.765 219.03" fill="#FCBEB7"/>
<path fill-rule="evenodd" clip-rule="evenodd" d="M320.692 181.408H269.432C267.378 181.408 265.571 182.769 265.004 184.744L256.141 215.616H236.57C235.644 215.616 234.856 216.336 234.824 217.261C234.789 218.232 235.566 219.03 236.529 219.03H261.086H313.115L323.026 184.506C323.471 182.954 322.306 181.408 320.692 181.408" fill="#4A5EA3"/>
<path fill-rule="evenodd" clip-rule="evenodd" d="M293.023 201.598C292.896 203.039 291.993 204.138 291.005 204.051C290.018 203.964 289.321 202.725 289.447 201.284C289.574 199.842 290.477 198.744 291.464 198.83C292.452 198.917 293.15 200.156 293.023 201.598" fill="#2F3D6C"/>
<path fill-rule="evenodd" clip-rule="evenodd" d="M222.356 228.771L220.527 238.847L269.128 231.912L268.078 228.771H222.356Z" fill="#4A5EA3"/>
<path fill-rule="evenodd" clip-rule="evenodd" d="M219.725 175.412C219.725 178.452 217.261 180.916 214.221 180.916C212.831 180.916 211.563 180.401 210.594 179.552C212.431 176.519 215.145 174.059 218.435 172.535L218.804 172.364C219.386 173.236 219.725 174.285 219.725 175.412" fill="#FF78BA"/>
<path fill-rule="evenodd" clip-rule="evenodd" d="M278.354 179.466C277.5 180.01 276.488 180.324 275.402 180.324C272.363 180.324 269.897 177.86 269.897 174.82C269.897 173.749 270.205 172.748 270.734 171.903C273.336 173.158 275.559 175.114 277.137 177.573L278.354 179.466Z" fill="#FF78BA"/>
<path fill-rule="evenodd" clip-rule="evenodd" d="M260.751 199.556C260.538 200.297 251.228 210.323 251.228 210.323L226.42 209.072L257.009 212.591L260.751 199.556Z" fill="#FF78BA"/>
<path fill-rule="evenodd" clip-rule="evenodd" d="M162.762 224.438L158.228 261.104L145.813 361.481H142.447L154.826 261.391L159.397 224.438H162.762Z" fill="#D2DCFF"/>
<path fill-rule="evenodd" clip-rule="evenodd" d="M207.301 361.481H203.935L191.176 258.325L186.985 224.438H190.351L194.507 258.043L207.301 361.481Z" fill="#D2DCFF"/>
<path fill-rule="evenodd" clip-rule="evenodd" d="M159.397 224.438H162.762L158.228 261.104L154.827 261.391L159.397 224.438Z" fill="#AEC3FF"/>
<path fill-rule="evenodd" clip-rule="evenodd" d="M190.351 224.438L194.507 258.044L191.176 258.325L186.985 224.438H190.351Z" fill="#AEC3FF"/>
<path fill-rule="evenodd" clip-rule="evenodd" d="M376.075 361.481H372.71L358.209 244.238L355.76 224.438H359.125L361.54 243.958L376.075 361.481Z" fill="#D2DCFF"/>
<path fill-rule="evenodd" clip-rule="evenodd" d="M361.54 243.958L358.209 244.238L355.76 224.438H359.125L361.54 243.958Z" fill="#AEC3FF"/>
<path fill-rule="evenodd" clip-rule="evenodd" d="M368.044 219.029H196.408V224.437H368.044C369.537 224.437 370.748 223.227 370.748 221.733C370.748 220.24 369.537 219.029 368.044 219.029" fill="#D2DCFF"/>
<path fill-rule="evenodd" clip-rule="evenodd" d="M161.471 219.029H151.328C149.835 219.029 148.624 220.24 148.624 221.733C148.624 223.227 149.835 224.437 151.328 224.437H161.471H196.409V219.029H161.471Z" fill="#86A2E2"/>
<path fill-rule="evenodd" clip-rule="evenodd" d="M364.184 212.984V211.606C364.184 211.179 363.838 210.834 363.413 210.834H331.423C329.809 210.834 328.5 212.142 328.5 213.756V216.107C328.5 217.72 329.809 219.029 331.423 219.029H363.413C363.838 219.029 364.184 218.683 364.184 218.257V216.879C364.184 216.452 363.838 216.107 363.413 216.107H332.598C331.95 216.107 331.423 215.58 331.423 214.931C331.423 214.282 331.95 213.756 332.598 213.756H363.413C363.838 213.756 364.184 213.41 364.184 212.984" fill="#6277D7"/>
<path fill-rule="evenodd" clip-rule="evenodd" d="M362.802 213.756V216.107H332.598C331.949 216.107 331.423 215.58 331.423 214.931C331.423 214.282 331.949 213.756 332.598 213.756H362.802Z" fill="#D2DCFF"/>
<path fill-rule="evenodd" clip-rule="evenodd" d="M361.899 204.789V203.411C361.899 202.984 361.553 202.639 361.127 202.639H333.709C332.094 202.639 330.787 203.947 330.787 205.561V207.912C330.787 209.526 332.094 210.834 333.709 210.834H361.127C361.553 210.834 361.899 210.489 361.899 210.062V208.684C361.899 208.257 361.553 207.912 361.127 207.912H334.884C334.235 207.912 333.709 207.386 333.709 206.736C333.709 206.087 334.235 205.561 334.884 205.561H361.127C361.553 205.561 361.899 205.215 361.899 204.789" fill="#F9A0C0"/>
<path fill-rule="evenodd" clip-rule="evenodd" d="M360.882 205.561V207.912H334.884C334.235 207.912 333.708 207.386 333.708 206.736C333.708 206.087 334.235 205.561 334.884 205.561H360.882Z" fill="#FFD9E8"/>
<path fill-rule="evenodd" clip-rule="evenodd" d="M176.538 205.878H191.634C192.378 205.878 192.955 206.528 192.867 207.268L191.59 217.935C191.516 218.559 190.985 219.029 190.356 219.029H177.815C177.186 219.029 176.657 218.559 176.582 217.935L175.306 207.268C175.217 206.528 175.794 205.878 176.538 205.878" fill="#D2DCFF"/>
<path fill-rule="evenodd" clip-rule="evenodd" d="M189.269 201.525V196.674L186.367 202.189V193.233L184.086 198.872L181.806 193.233V202.189L178.905 196.674V201.525L174.675 194.726L176.539 205.878H184.086H191.634L193.498 194.726L189.269 201.525Z" fill="#6277D7"/>
<path fill-rule="evenodd" clip-rule="evenodd" d="M211.852 212.997C211.852 215.209 210.059 217.002 207.847 217.002C205.636 217.002 203.843 215.209 203.843 212.997C203.843 210.786 205.636 208.993 207.847 208.993C210.059 208.993 211.852 210.786 211.852 212.997" fill="#F9AFAB"/>
<path fill-rule="evenodd" clip-rule="evenodd" d="M353.304 56.8574V98.0604C353.304 99.5144 352.125 100.693 350.671 100.693H301.139C299.685 100.693 298.506 99.5144 298.506 98.0604V56.8574C298.506 55.4024 299.685 54.2244 301.139 54.2244H350.671C352.125 54.2244 353.304 55.4024 353.304 56.8574" fill="#D2DCFF"/>
<path fill-rule="evenodd" clip-rule="evenodd" d="M353.304 56.8574V64.6254H298.506V56.8574C298.506 55.4024 299.685 54.2244 301.14 54.2244H350.671C352.125 54.2244 353.304 55.4024 353.304 56.8574" fill="#6277D7"/>
<path fill-rule="evenodd" clip-rule="evenodd" d="M313.357 57.522V57.522C312.606 57.522 311.998 56.914 311.998 56.163V52.286C311.998 51.535 312.606 50.926 313.357 50.926C314.108 50.926 314.716 51.535 314.716 52.286V56.163C314.716 56.914 314.108 57.522 313.357 57.522" fill="#6277D7"/>
<path fill-rule="evenodd" clip-rule="evenodd" d="M338.453 57.522V57.522C337.702 57.522 337.094 56.914 337.094 56.163V52.286C337.094 51.535 337.702 50.926 338.453 50.926C339.204 50.926 339.812 51.535 339.812 52.286V56.163C339.812 56.914 339.204 57.522 338.453 57.522" fill="#6277D7"/>
<path fill-rule="evenodd" clip-rule="evenodd" d="M314.155 83.8143L320.004 78.5613C320.301 78.2913 320.599 77.9863 320.897 77.6463C321.195 77.3063 321.343 76.9093 321.343 76.4553C321.343 75.9443 321.159 75.5443 320.791 75.2533C320.422 74.9623 319.989 74.8173 319.493 74.8173C318.897 74.8173 318.433 75.0013 318.1 75.3703C317.766 75.7393 317.579 76.1923 317.537 76.7313L314.346 76.4983C314.388 75.7183 314.551 75.0413 314.836 74.4663C315.119 73.8923 315.495 73.4133 315.963 73.0303C316.43 72.6473 316.98 72.3603 317.611 72.1693C318.242 71.9783 318.926 71.8823 319.664 71.8823C320.344 71.8823 320.982 71.9783 321.578 72.1693C322.174 72.3603 322.69 72.6453 323.131 73.0203C323.569 73.3963 323.914 73.8673 324.162 74.4343C324.41 75.0013 324.534 75.6613 324.534 76.4123C324.534 76.8953 324.484 77.3313 324.385 77.7203C324.286 78.1103 324.147 78.4653 323.97 78.7843C323.793 79.1033 323.584 79.3973 323.343 79.6673C323.101 79.9363 322.84 80.1983 322.556 80.4533L317.983 84.3883H324.662V87.1963H314.155V83.8143Z" fill="#6277D7"/>
<path fill-rule="evenodd" clip-rule="evenodd" d="M329.617 77.1783C329.617 77.8593 329.841 78.4233 330.287 78.8693C330.734 79.3163 331.319 79.5393 332.042 79.5393C332.765 79.5393 333.35 79.3163 333.797 78.8693C334.243 78.4233 334.467 77.8593 334.467 77.1783C334.467 76.4983 334.243 75.9343 333.797 75.4873C333.35 75.0413 332.765 74.8173 332.042 74.8173C331.319 74.8173 330.734 75.0413 330.287 75.4873C329.841 75.9343 329.617 76.4983 329.617 77.1783V77.1783ZM332.191 81.8153C332.02 81.8573 331.85 81.8933 331.68 81.9213C331.511 81.9503 331.333 81.9643 331.148 81.9643C330.439 81.9643 329.795 81.8363 329.213 81.5813C328.632 81.3253 328.136 80.9783 327.724 80.5393C327.313 80.0993 326.994 79.5783 326.767 78.9753C326.54 78.3733 326.427 77.7313 326.427 77.0513C326.427 76.2713 326.572 75.5653 326.863 74.9343C327.153 74.3033 327.551 73.7613 328.054 73.3073C328.557 72.8543 329.149 72.5033 329.83 72.2543C330.511 72.0073 331.248 71.8823 332.042 71.8823C332.821 71.8823 333.555 72.0073 334.243 72.2543C334.93 72.5033 335.526 72.8543 336.03 73.3073C336.533 73.7613 336.93 74.3033 337.221 74.9343C337.512 75.5653 337.657 76.2713 337.657 77.0513C337.657 77.5903 337.607 78.0823 337.508 78.5293C337.409 78.9753 337.277 79.3973 337.114 79.7943C336.951 80.1913 336.76 80.5713 336.54 80.9323C336.32 81.2943 336.09 81.6663 335.849 82.0493L332.553 87.1963H328.66L332.191 81.8153Z" fill="#6277D7"/>
<path fill-rule="evenodd" clip-rule="evenodd" d="M332.2 95.11H319.609C319.304 95.11 319.055 94.862 319.055 94.556C319.055 94.25 319.304 94.002 319.609 94.002H332.2C332.506 94.002 332.754 94.25 332.754 94.556C332.754 94.862 332.506 95.11 332.2 95.11" fill="#AEC3FF"/>
<path fill-rule="evenodd" clip-rule="evenodd" d="M194.23 100.693H37.9298C33.5328 100.693 29.9668 97.1283 29.9668 92.7303V8.19933C29.9668 3.80133 33.5328 0.236328 37.9298 0.236328H194.23C198.627 0.236328 202.193 3.80133 202.193 8.19933V92.7303C202.193 97.1283 198.627 100.693 194.23 100.693" fill="#89AEFF"/>
<path fill-rule="evenodd" clip-rule="evenodd" d="M72.7678 76.1187C72.7678 74.3607 74.1928 72.9347 75.9518 72.9347C63.5608 72.9347 53.4818 62.8547 53.4818 50.4647C53.4818 38.0747 63.5608 27.9947 75.9518 27.9947C88.3408 27.9947 98.4208 38.0747 98.4208 50.4647C98.4208 48.7067 99.8468 47.2817 101.605 47.2817C103.364 47.2817 104.789 48.7067 104.789 50.4647C104.789 34.5637 91.8528 21.6277 75.9518 21.6277C60.0498 21.6277 47.1138 34.5637 47.1138 50.4647C47.1138 66.3657 60.0498 79.3027 75.9518 79.3027C74.1928 79.3027 72.7678 77.8767 72.7678 76.1187" fill="#E1E9FF"/>
<path fill-rule="evenodd" clip-rule="evenodd" d="M101.605 47.2812C99.8468 47.2812 98.4208 48.7063 98.4208 50.4653C98.4208 62.8553 88.3408 72.9352 75.9518 72.9352C74.1928 72.9352 72.7678 74.3602 72.7678 76.1182C72.7678 77.8772 74.1928 79.3022 75.9518 79.3022C91.8528 79.3022 104.789 66.3652 104.789 50.4653C104.789 48.7063 103.364 47.2812 101.605 47.2812" fill="#6277D7"/>
<path fill-rule="evenodd" clip-rule="evenodd" d="M182.98 31.4741H125.65C124.708 31.4741 123.943 30.7101 123.943 29.7671C123.943 28.8251 124.708 28.0601 125.65 28.0601H182.98C183.922 28.0601 184.687 28.8251 184.687 29.7671C184.687 30.7101 183.922 31.4741 182.98 31.4741" fill="#E1E9FF"/>
<path fill-rule="evenodd" clip-rule="evenodd" d="M155.938 40.7836H125.65C124.708 40.7836 123.943 40.0196 123.943 39.0766C123.943 38.1346 124.708 37.3696 125.65 37.3696H155.938C156.881 37.3696 157.645 38.1346 157.645 39.0766C157.645 40.0196 156.881 40.7836 155.938 40.7836" fill="#E1E9FF"/>
<path fill-rule="evenodd" clip-rule="evenodd" d="M145.156 75.1762H125.649C124.707 75.1762 123.942 74.4122 123.942 73.4692C123.942 72.5272 124.707 71.7622 125.649 71.7622H145.156C146.099 71.7622 146.863 72.5272 146.863 73.4692C146.863 74.4122 146.099 75.1762 145.156 75.1762" fill="#6277D7"/>
</svg>
