<svg width="503" height="422" viewBox="0 0 503 422" fill="none" xmlns="http://www.w3.org/2000/svg">
<path fill-rule="evenodd" clip-rule="evenodd" d="M485.377 239.411H482.002H478.627H425.855C436.957 239.411 445.958 248.411 445.958 259.514V285.305H405.752H395.252C394.023 285.305 393.027 286.301 393.027 287.529V288.427C393.027 289.655 394.023 290.651 395.252 290.651H408.076H426.471H426.472H464.222H479.21H499.781C501.064 290.651 502.104 289.611 502.104 288.328V256.139C502.104 246.9 494.615 239.411 485.377 239.411" fill="#D2DCFF"/>
<path fill-rule="evenodd" clip-rule="evenodd" d="M445.957 259.514C445.957 248.411 436.957 239.411 425.854 239.411V239.411C414.752 239.411 405.752 248.411 405.752 259.514V285.305H445.957V259.514Z" fill="#86A2E2"/>
<path fill-rule="evenodd" clip-rule="evenodd" d="M449.846 420.204H455.835V290.651H449.846V420.204Z" fill="#D2DCFF"/>
<path fill-rule="evenodd" clip-rule="evenodd" d="M455.835 290.651V310.353L449.846 308.971V290.651H455.835Z" fill="#AEC3FF"/>
<path fill-rule="evenodd" clip-rule="evenodd" d="M479.698 267.384V220.441C479.698 218.816 481.015 217.498 482.641 217.498H490.174C493.756 217.498 496.659 220.402 496.659 223.983C496.659 227.565 493.756 230.468 490.174 230.468H483.689V267.384C483.689 268.486 482.795 269.379 481.693 269.379C480.591 269.379 479.698 268.486 479.698 267.384" fill="#FE9ECC"/>
<path fill-rule="evenodd" clip-rule="evenodd" d="M445.958 285.305H502.104V284.065H445.958V285.305Z" fill="#AEC3FF"/>
<path fill-rule="evenodd" clip-rule="evenodd" d="M293.78 165.132H137.48C133.083 165.132 129.517 161.567 129.517 157.169V8.35802C129.517 3.96002 133.083 0.39502 137.48 0.39502H293.78C298.178 0.39502 301.743 3.96002 301.743 8.35802V157.169C301.743 161.567 298.178 165.132 293.78 165.132" fill="#89AEFF"/>
<path fill-rule="evenodd" clip-rule="evenodd" d="M227.03 24.2404H152.869C151.549 24.2404 150.479 23.1714 150.479 21.8504C150.479 20.5304 151.549 19.4614 152.869 19.4614H227.03C228.35 19.4614 229.42 20.5304 229.42 21.8504C229.42 23.1714 228.35 24.2404 227.03 24.2404" fill="#D2DCFF"/>
<path fill-rule="evenodd" clip-rule="evenodd" d="M203.189 36.1643H152.869C151.549 36.1643 150.479 35.0943 150.479 33.7743C150.479 32.4543 151.549 31.3843 152.869 31.3843H203.189C204.509 31.3843 205.579 32.4543 205.579 33.7743C205.579 35.0943 204.509 36.1643 203.189 36.1643" fill="#D2DCFF"/>
<path fill-rule="evenodd" clip-rule="evenodd" d="M165.439 55.7004H152.186C151.243 55.7004 150.479 54.9364 150.479 53.9944C150.479 53.0514 151.243 52.2874 152.186 52.2874H165.439C166.382 52.2874 167.146 53.0514 167.146 53.9944C167.146 54.9364 166.382 55.7004 165.439 55.7004" fill="#6277D7"/>
<path fill-rule="evenodd" clip-rule="evenodd" d="M262.679 114.322H221.722C220.78 114.322 220.016 113.558 220.016 112.616V105.718C220.016 104.776 220.78 104.011 221.722 104.011H262.679C263.622 104.011 264.386 104.776 264.386 105.718V112.616C264.386 113.558 263.622 114.322 262.679 114.322" fill="#D2DCFF"/>
<path fill-rule="evenodd" clip-rule="evenodd" d="M279.183 133.066H221.723C220.781 133.066 220.017 132.301 220.017 131.359V124.462C220.017 123.519 220.781 122.754 221.723 122.754H279.183C280.126 122.754 280.89 123.519 280.89 124.462V131.359C280.89 132.301 280.126 133.066 279.183 133.066" fill="#D2DCFF"/>
<path fill-rule="evenodd" clip-rule="evenodd" d="M175.986 144.193C175.986 142.434 177.411 141.009 179.17 141.009C166.779 141.009 156.699 130.929 156.699 118.539C156.699 106.149 166.779 96.0687 179.17 96.0687C191.56 96.0687 201.64 106.149 201.64 118.539C201.64 116.781 203.065 115.355 204.823 115.355C206.582 115.355 208.007 116.781 208.007 118.539C208.007 102.638 195.07 89.7017 179.17 89.7017C163.269 89.7017 150.332 102.638 150.332 118.539C150.332 134.44 163.269 147.377 179.17 147.377C177.411 147.377 175.986 145.951 175.986 144.193" fill="#D2DCFF"/>
<path fill-rule="evenodd" clip-rule="evenodd" d="M204.824 115.355C203.066 115.355 201.64 116.781 201.64 118.539C201.64 130.929 191.56 141.009 179.17 141.009C177.412 141.009 175.987 142.434 175.987 144.193C175.987 145.951 177.412 147.376 179.17 147.376C195.071 147.376 208.008 134.44 208.008 118.539C208.008 116.781 206.582 115.355 204.824 115.355" fill="#6277D7"/>
<path fill-rule="evenodd" clip-rule="evenodd" d="M397.213 110.805V152.008C397.213 153.461 396.034 154.641 394.58 154.641H345.048C343.593 154.641 342.415 153.461 342.415 152.008V110.805C342.415 109.35 343.593 108.172 345.048 108.172H394.58C396.034 108.172 397.213 109.35 397.213 110.805" fill="#D2DCFF"/>
<path fill-rule="evenodd" clip-rule="evenodd" d="M397.213 110.805V118.573H342.415V110.805C342.415 109.35 343.594 108.172 345.048 108.172H394.58C396.034 108.172 397.213 109.35 397.213 110.805" fill="#6277D7"/>
<path fill-rule="evenodd" clip-rule="evenodd" d="M357.265 111.469V111.469C356.515 111.469 355.906 110.861 355.906 110.11V106.233C355.906 105.483 356.515 104.873 357.265 104.873C358.016 104.873 358.624 105.483 358.624 106.233V110.11C358.624 110.861 358.016 111.469 357.265 111.469" fill="#6277D7"/>
<path fill-rule="evenodd" clip-rule="evenodd" d="M382.362 111.469V111.469C381.612 111.469 381.003 110.861 381.003 110.11V106.233C381.003 105.483 381.612 104.873 382.362 104.873C383.113 104.873 383.721 105.483 383.721 106.233V110.11C383.721 110.861 383.113 111.469 382.362 111.469" fill="#6277D7"/>
<path fill-rule="evenodd" clip-rule="evenodd" d="M358.063 137.762L363.912 132.508C364.209 132.239 364.507 131.934 364.805 131.594C365.103 131.253 365.252 130.857 365.252 130.403C365.252 129.892 365.067 129.491 364.699 129.2C364.33 128.91 363.897 128.765 363.401 128.765C362.806 128.765 362.341 128.949 362.008 129.318C361.675 129.687 361.487 130.14 361.445 130.679L358.254 130.445C358.297 129.665 358.459 128.989 358.744 128.413C359.027 127.839 359.403 127.361 359.871 126.978C360.338 126.595 360.888 126.308 361.519 126.116C362.15 125.925 362.834 125.829 363.571 125.829C364.252 125.829 364.89 125.925 365.486 126.116C366.081 126.308 366.599 126.592 367.039 126.967C367.478 127.343 367.822 127.815 368.07 128.382C368.318 128.949 368.442 129.609 368.442 130.36C368.442 130.842 368.392 131.279 368.293 131.668C368.194 132.058 368.056 132.412 367.878 132.732C367.701 133.05 367.492 133.345 367.251 133.615C367.01 133.884 366.748 134.146 366.464 134.401L361.891 138.336H368.57V141.144H358.063V137.762Z" fill="#6277D7"/>
<path fill-rule="evenodd" clip-rule="evenodd" d="M373.525 131.125C373.525 131.806 373.748 132.369 374.195 132.816C374.642 133.263 375.227 133.486 375.949 133.486C376.672 133.486 377.257 133.263 377.704 132.816C378.151 132.369 378.374 131.806 378.374 131.125C378.374 130.444 378.151 129.881 377.704 129.435C377.257 128.988 376.672 128.765 375.949 128.765C375.227 128.765 374.642 128.988 374.195 129.435C373.748 129.881 373.525 130.444 373.525 131.125V131.125ZM376.098 135.762C375.928 135.805 375.758 135.84 375.588 135.868C375.418 135.896 375.24 135.911 375.056 135.911C374.347 135.911 373.702 135.783 373.121 135.528C372.539 135.272 372.043 134.926 371.632 134.486C371.22 134.047 370.901 133.525 370.675 132.923C370.448 132.32 370.335 131.679 370.335 130.998C370.335 130.218 370.48 129.513 370.771 128.882C371.061 128.251 371.458 127.708 371.962 127.255C372.465 126.801 373.057 126.45 373.737 126.201C374.418 125.954 375.155 125.829 375.949 125.829C376.729 125.829 377.463 125.954 378.151 126.201C378.838 126.45 379.434 126.801 379.938 127.255C380.441 127.708 380.838 128.251 381.129 128.882C381.419 129.513 381.565 130.218 381.565 130.998C381.565 131.537 381.515 132.029 381.416 132.476C381.317 132.923 381.185 133.345 381.022 133.741C380.859 134.139 380.668 134.518 380.448 134.879C380.228 135.241 379.998 135.613 379.757 135.996L376.46 141.144H372.568L376.098 135.762Z" fill="#6277D7"/>
<path fill-rule="evenodd" clip-rule="evenodd" d="M376.109 149.057H363.518C363.213 149.057 362.964 148.809 362.964 148.503C362.964 148.198 363.213 147.95 363.518 147.95H376.109C376.415 147.95 376.663 148.198 376.663 148.503C376.663 148.809 376.415 149.057 376.109 149.057" fill="#AEC3FF"/>
<path fill-rule="evenodd" clip-rule="evenodd" d="M193.463 364.926C205.338 343.183 167.85 332.959 158.812 341.583C149.774 350.208 179.736 390.058 193.463 364.926" fill="#FE9ECC"/>
<path fill-rule="evenodd" clip-rule="evenodd" d="M209.224 358.289C232.529 358.289 221.982 316.605 212.018 316.605C199.526 316.605 182.298 358.289 209.224 358.289" fill="#FE9ECC"/>
<path fill-rule="evenodd" clip-rule="evenodd" d="M227.187 373.409C246.4 389.051 263.288 354.054 256.456 343.595C249.624 333.136 204.979 355.331 227.187 373.409" fill="#FE9ECC"/>
<path fill-rule="evenodd" clip-rule="evenodd" d="M202.685 383.759C199.442 376.255 194.696 369.264 188.577 362.98C178.168 352.289 167.22 347.276 167.11 347.226C166.784 347.079 166.4 347.224 166.253 347.549C166.106 347.875 166.251 348.259 166.577 348.406C166.685 348.455 177.443 353.388 187.682 363.916C193.681 370.086 198.333 376.944 201.507 384.299C201.868 385.134 202.202 385.977 202.524 386.825H203.909C203.527 385.794 203.122 384.771 202.685 383.759" fill="#FF78BA"/>
<path fill-rule="evenodd" clip-rule="evenodd" d="M211.439 325.154C211.481 324.799 211.227 324.476 210.872 324.434C210.517 324.39 210.195 324.645 210.152 325.001C210.11 325.354 206.843 353.289 207.01 386.826H208.305C208.138 353.376 211.397 325.507 211.439 325.154" fill="#FF78BA"/>
<path fill-rule="evenodd" clip-rule="evenodd" d="M249.983 348.279C249.784 347.981 249.382 347.901 249.085 348.1C248.992 348.162 239.645 354.45 230.027 364.792C224.789 370.424 218.835 377.975 214.472 386.826H215.92C220.184 378.366 225.906 371.127 230.955 365.696C240.471 355.459 249.712 349.239 249.804 349.177C250.102 348.978 250.182 348.576 249.983 348.279" fill="#FF78BA"/>
<path fill-rule="evenodd" clip-rule="evenodd" d="M208.305 386.825H207.01H203.909H202.524H184.447C183.751 386.825 183.259 387.504 183.474 388.164L184.616 391.665L185.193 393.437L193.454 418.783C193.679 419.471 194.32 419.936 195.044 419.936H224.821C225.545 419.936 226.186 419.471 226.41 418.783L234.672 393.437L235.249 391.665L236.39 388.164C236.606 387.504 236.114 386.825 235.418 386.825H215.921H214.472H208.305Z" fill="#D2DCFF"/>
<path fill-rule="evenodd" clip-rule="evenodd" d="M235.249 391.665L234.671 393.437H185.193L184.615 391.665H235.249Z" fill="#AEC3FF"/>
<path fill-rule="evenodd" clip-rule="evenodd" d="M293.78 286.809H137.48C133.083 286.809 129.517 283.245 129.517 278.846V194.315C129.517 189.917 133.083 186.352 137.48 186.352H293.78C298.178 186.352 301.743 189.917 301.743 194.315V278.846C301.743 283.245 298.178 286.809 293.78 286.809" fill="#6277D7"/>
<path fill-rule="evenodd" clip-rule="evenodd" d="M282.53 217.59H225.2C224.258 217.59 223.493 216.825 223.493 215.883C223.493 214.941 224.258 214.176 225.2 214.176H282.53C283.473 214.176 284.237 214.941 284.237 215.883C284.237 216.825 283.473 217.59 282.53 217.59" fill="#D2DCFF"/>
<path fill-rule="evenodd" clip-rule="evenodd" d="M255.489 226.9H225.201C224.258 226.9 223.494 226.135 223.494 225.193C223.494 224.251 224.258 223.486 225.201 223.486H255.489C256.431 223.486 257.196 224.251 257.196 225.193C257.196 226.135 256.431 226.9 255.489 226.9" fill="#D2DCFF"/>
<path fill-rule="evenodd" clip-rule="evenodd" d="M244.707 261.292H225.2C224.257 261.292 223.493 260.527 223.493 259.585C223.493 258.643 224.257 257.878 225.2 257.878H244.707C245.649 257.878 246.414 258.643 246.414 259.585C246.414 260.527 245.649 261.292 244.707 261.292" fill="#89AEFF"/>
<path fill-rule="evenodd" clip-rule="evenodd" d="M165.425 245.027V258.93C165.425 259.873 164.66 260.637 163.718 260.637H156.821C155.878 260.637 155.114 259.873 155.114 258.93V245.027C155.114 244.085 155.878 243.321 156.821 243.321H163.718C164.66 243.321 165.425 244.085 165.425 245.027" fill="#D2DCFF"/>
<path fill-rule="evenodd" clip-rule="evenodd" d="M184.167 230.967V258.931C184.167 259.873 183.403 260.638 182.46 260.638H175.563C174.621 260.638 173.856 259.873 173.856 258.931V230.967C173.856 230.025 174.621 229.261 175.563 229.261H182.46C183.403 229.261 184.167 230.025 184.167 230.967" fill="#D2DCFF"/>
<path fill-rule="evenodd" clip-rule="evenodd" d="M202.91 219.297V258.931C202.91 259.873 202.146 260.638 201.203 260.638H194.306C193.363 260.638 192.599 259.873 192.599 258.931V219.297C192.599 218.354 193.363 217.59 194.306 217.59H201.203C202.146 217.59 202.91 218.354 202.91 219.297" fill="#D2DCFF"/>
<path fill-rule="evenodd" clip-rule="evenodd" d="M407.683 307.199C407.683 309.335 408.847 311.198 410.575 312.19L411.083 311.144C412.504 308.227 412.526 304.835 411.165 301.912C409.117 302.793 407.683 304.829 407.683 307.199" fill="#F9AFAB"/>
<path fill-rule="evenodd" clip-rule="evenodd" d="M345.932 255.2L347.642 251.864C347.175 249.119 346.975 246.134 347.133 242.934C347.168 242.212 347.222 241.477 347.294 240.733C350.864 241.05 361.336 241.469 369.04 236.581C368.473 241.119 370.168 246.145 372.979 250.385C373.321 249.566 374.547 247.037 376.661 247.037C380.89 247.037 381.53 253.795 379.165 257.013C380.798 258.226 382.508 259.141 384.202 259.65C384.202 259.65 384.209 259.643 384.22 259.633V279.088H367.82V270.61C365.615 271.42 363.657 271.884 362.275 271.884C358.147 271.884 351.89 266.346 348.855 256.859H346.946C346.316 256.859 345.807 256.349 345.807 255.72C345.807 255.539 345.849 255.361 345.932 255.2" fill="#FCBEB7"/>
<path fill-rule="evenodd" clip-rule="evenodd" d="M379.165 257.013C381.53 253.794 380.89 247.036 376.661 247.036C374.547 247.036 373.321 249.566 372.979 250.384C370.168 246.145 368.473 241.118 369.04 236.58C361.336 241.468 350.864 241.049 347.294 240.733C347.222 241.477 347.168 242.211 347.133 242.934C346.824 242.641 346.098 241.825 346.047 240.597H346.043C346.043 240.563 346.044 240.528 346.044 240.492C346.044 240.482 346.043 240.471 346.043 240.46C346.043 240.453 346.044 240.448 346.045 240.442C346.139 233.438 352.55 221.544 368.197 221.544C384.775 221.544 387.877 232.337 387.877 232.337C387.877 232.337 393.584 235.464 393.584 241.768C393.584 250.051 384.654 259.192 384.22 259.632C384.209 259.643 384.202 259.65 384.202 259.65C382.508 259.141 380.798 258.226 379.165 257.013" fill="#311643"/>
<path fill-rule="evenodd" clip-rule="evenodd" d="M367.82 279.087V270.609C372.373 268.938 377.979 265.792 381.734 262.219L367.82 279.087Z" fill="#F9AFAB"/>
<path fill-rule="evenodd" clip-rule="evenodd" d="M360.663 254.434C360.663 256.889 362.653 258.879 365.108 258.879C367.564 258.879 369.554 256.889 369.554 254.434C369.554 251.979 367.564 249.989 365.108 249.989C362.653 249.989 360.663 251.979 360.663 254.434" fill="#F49795"/>
<path fill-rule="evenodd" clip-rule="evenodd" d="M355.603 261.308C356.497 261.308 357.108 260.969 357.479 260.661C357.941 260.278 358.136 259.864 358.156 259.819C358.249 259.612 358.157 259.37 357.951 259.277C357.746 259.184 357.504 259.275 357.411 259.48C357.385 259.534 356.837 260.651 355.262 260.468C355.038 260.443 354.834 260.604 354.809 260.829C354.783 261.053 354.943 261.256 355.168 261.282C355.32 261.299 355.465 261.308 355.603 261.308" fill="#311643"/>
<path fill-rule="evenodd" clip-rule="evenodd" d="M353.096 248.988C353.589 248.988 353.989 248.588 353.989 248.094V246.425C353.989 245.932 353.589 245.532 353.096 245.532C352.602 245.532 352.202 245.932 352.202 246.425V248.094C352.202 248.588 352.602 248.988 353.096 248.988" fill="#311643"/>
<path fill-rule="evenodd" clip-rule="evenodd" d="M347.07 246.85H349.827V241.767C349.827 241.54 350.011 241.357 350.237 241.357C350.463 241.357 350.646 241.54 350.646 241.767V252.753C350.646 252.979 350.463 253.162 350.237 253.162C350.011 253.162 349.827 252.979 349.827 252.753V247.669H347.07C346.844 247.669 346.661 247.486 346.661 247.26C346.661 247.034 346.844 246.85 347.07 246.85" fill="white"/>
<path fill-rule="evenodd" clip-rule="evenodd" d="M319.963 312.622L366.11 330.598L379.735 348.733C381.835 351.528 384.799 353.495 388.114 354.37L367.924 368.272L329.289 347.944L330.88 397.303H313.548L299.062 330.457C296.428 318.306 308.378 308.109 319.963 312.622" fill="#6277D7"/>
<path fill-rule="evenodd" clip-rule="evenodd" d="M330.88 404.27V416.516C330.88 417.944 329.722 419.102 328.294 419.102H293.56C293.23 419.102 292.962 418.833 292.962 418.503V416.247C292.962 415.158 293.597 414.168 294.587 413.714L315.214 404.27H330.88Z" fill="#2F3D6C"/>
<path fill-rule="evenodd" clip-rule="evenodd" d="M330.88 397.303V404.27H315.214L313.547 397.303H330.88Z" fill="#FCBEB7"/>
<path fill-rule="evenodd" clip-rule="evenodd" d="M346.628 357.066L367.924 368.271L383.808 357.066H346.628Z" fill="#4A5EA3"/>
<path fill-rule="evenodd" clip-rule="evenodd" d="M299.487 322.198C300.804 323.078 302.387 323.592 304.089 323.592C308.67 323.592 312.383 319.878 312.383 315.297C312.383 314.034 312.101 312.838 311.597 311.767C306.011 312.76 301.298 316.815 299.487 322.198" fill="#4A5EA3"/>
<path fill-rule="evenodd" clip-rule="evenodd" d="M405.402 291.076L410.902 301.387C412.522 304.422 412.589 308.05 411.083 311.143L410.61 312.114L406.333 294.383C406.064 293.265 405.753 292.163 405.402 291.076" fill="#FCBEB7"/>
<path fill-rule="evenodd" clip-rule="evenodd" d="M388.114 354.369C388.006 354.341 387.898 354.31 387.791 354.28C384.607 353.365 381.767 351.436 379.735 348.732L366.111 330.597V330.596L367.18 293.724L353.447 296.715L348.001 279.53L384.211 265.247C394.324 270.887 401.874 280.137 405.402 291.076C405.753 292.163 406.064 293.265 406.333 294.383L410.61 312.114L421.1 355.603L391.662 354.875C390.451 354.846 389.262 354.672 388.114 354.369" fill="#89AEFF"/>
<path fill-rule="evenodd" clip-rule="evenodd" d="M366.995 300.147L384.972 288.832L367.181 293.731L366.995 300.147Z" fill="#4A62D3"/>
<path fill-rule="evenodd" clip-rule="evenodd" d="M415.732 403.02L422.193 396.714C423.455 395.484 425.418 395.335 426.85 396.362L454.546 416.218C454.902 416.474 454.983 416.968 454.729 417.325L453.512 419.021C452.869 419.918 451.826 420.441 450.722 420.419L439.601 420.205L415.732 403.02Z" fill="#2F3D6C"/>
<path fill-rule="evenodd" clip-rule="evenodd" d="M415.732 420.205H439.601L415.732 403.02V420.205Z" fill="#FCBEB7"/>
<path fill-rule="evenodd" clip-rule="evenodd" d="M337.008 389.809L387.791 354.281C387.899 354.311 388.007 354.341 388.114 354.37C389.262 354.672 390.452 354.846 391.662 354.875L421.101 355.604C421.101 368.259 413.5 379.676 401.824 384.559L371.927 397.061L415.733 403.02V420.205H346.585C330.249 420.205 323.622 399.173 337.008 389.809" fill="#6277D7"/>
<path fill-rule="evenodd" clip-rule="evenodd" d="M334.475 415.089C336.82 413.623 338.379 411.02 338.379 408.05C338.379 403.519 334.746 399.836 330.233 399.757C329.035 405.196 330.681 411.046 334.475 415.089" fill="#4A5EA3"/>
<path fill-rule="evenodd" clip-rule="evenodd" d="M274.215 242.102L284.649 238.636C285.267 238.43 285.944 238.488 286.519 238.794L292.971 242.232L294.431 242.55C294.976 242.668 295.426 243.05 295.633 243.568L298.172 249.921L341.435 281.887L348.001 279.531L353.448 296.715L340.752 299.337C337.803 299.947 334.746 299.026 332.625 296.889L292.011 255.998L284.555 251.614C283.867 251.209 283.433 250.483 283.403 249.686L283.373 248.896L282.89 248.429C282.382 247.939 282.122 247.245 282.184 246.541L282.242 245.884C281.699 245.354 281.447 244.593 281.567 243.844L281.672 243.184L274.638 244.007C274.197 244.059 273.777 243.808 273.612 243.395C273.404 242.872 273.679 242.28 274.215 242.102" fill="#FCBEB7"/>
<path fill-rule="evenodd" clip-rule="evenodd" d="M331.896 296.156L332.624 296.888C334.746 299.025 337.803 299.946 340.751 299.337L341.347 299.214C341.003 296.51 338.695 294.422 335.9 294.422C334.32 294.422 332.897 295.089 331.896 296.156" fill="#F9AFAB"/>
<path fill-rule="evenodd" clip-rule="evenodd" d="M56.8265 147.512C55.8335 147.512 54.7495 147.328 53.6185 147.01V154.525H37.3915V135.191C37.2815 134.88 37.1725 134.549 37.0655 134.199C29.8715 133.513 30.1705 121.623 34.4445 121.623C34.5035 121.623 34.5595 121.629 34.6155 121.637V121.636C52.5855 127.38 64.6695 117.968 68.6235 111.427C68.6235 115.991 73.6755 120.442 75.4725 120.847C75.2065 137.158 63.5385 147.512 56.8265 147.512M78.8805 116.103C78.8805 105.36 69.4055 96.656 55.1975 96.656C43.3895 96.656 39.3315 103.171 39.3315 103.171C39.3315 103.171 28.1705 105.583 28.1705 119.452V154.525H46.5105H47.4455H60.9885H75.7115V125.641C76.8745 124.213 78.8805 121.036 78.8805 116.103" fill="#311643"/>
<path fill-rule="evenodd" clip-rule="evenodd" d="M53.6186 148.778V147.01C54.7496 147.329 55.8336 147.512 56.8266 147.512C63.5386 147.512 75.2066 137.158 75.4726 120.847C73.6756 120.442 68.6236 115.992 68.6236 111.427C64.6696 117.968 52.5856 127.381 34.6156 121.636V121.637C34.5596 121.63 34.5036 121.624 34.4446 121.624C30.1706 121.624 29.8716 133.513 37.0656 134.2C37.1726 134.549 37.2816 134.881 37.3916 135.191V148.197L24.6826 154.188V169.874H66.9156V152.774L53.6186 148.778Z" fill="#FCBEB7"/>
<path fill-rule="evenodd" clip-rule="evenodd" d="M66.9155 169.873V152.773L53.6195 148.777L53.6185 147.01C49.8585 145.948 45.5845 143.378 42.4465 140.98L66.9155 169.873Z" fill="#F9AFAB"/>
<path fill-rule="evenodd" clip-rule="evenodd" d="M49.3783 130.191C49.3783 132.636 47.3973 134.618 44.9523 134.618C42.5073 134.618 40.5253 132.636 40.5253 130.191C40.5253 127.747 42.5073 125.764 44.9523 125.764C47.3973 125.764 49.3783 127.747 49.3783 130.191" fill="#F49795"/>
<path fill-rule="evenodd" clip-rule="evenodd" d="M74.9022 126.516C74.3412 129.489 73.4012 132.2 72.2122 134.612C69.8712 134.496 68.0082 132.561 68.0082 130.191C68.0082 127.745 69.9902 125.764 72.4352 125.764C73.3482 125.764 74.1972 126.041 74.9022 126.516" fill="#F49795"/>
<path fill-rule="evenodd" clip-rule="evenodd" d="M67.4144 128.453C64.4084 128.453 61.9624 126.007 61.9624 123C61.9624 119.994 64.4084 117.548 67.4144 117.548C70.4214 117.548 72.8674 119.994 72.8674 123C72.8674 126.007 70.4214 128.453 67.4144 128.453M50.8144 128.453C47.8084 128.453 45.3624 126.007 45.3624 123C45.3624 119.994 47.8084 117.548 50.8144 117.548C53.8214 117.548 56.2674 119.994 56.2674 123C56.2674 126.007 53.8214 128.453 50.8144 128.453M67.4144 116.727C64.1824 116.727 61.5144 119.184 61.1784 122.329C59.4204 121.502 57.8704 121.95 57.0514 122.326C56.7134 119.182 54.0454 116.727 50.8144 116.727C47.3554 116.727 44.5414 119.541 44.5414 123C44.5414 126.459 47.3554 129.273 50.8144 129.273C54.1964 129.273 56.9604 126.583 57.0814 123.23C57.6024 122.931 59.2584 122.167 61.1474 123.237C61.2724 126.587 64.0354 129.273 67.4144 129.273C70.8734 129.273 73.6874 126.459 73.6874 123C73.6874 119.541 70.8734 116.727 67.4144 116.727" fill="white"/>
<path fill-rule="evenodd" clip-rule="evenodd" d="M67.4188 124.732C66.9238 124.732 66.5228 124.332 66.5228 123.837V122.165C66.5228 121.67 66.9238 121.269 67.4188 121.269C67.9128 121.269 68.3138 121.67 68.3138 122.165V123.837C68.3138 124.332 67.9128 124.732 67.4188 124.732" fill="#311643"/>
<path fill-rule="evenodd" clip-rule="evenodd" d="M51.0868 124.732C50.5928 124.732 50.1918 124.332 50.1918 123.837V122.165C50.1918 121.67 50.5928 121.269 51.0868 121.269C51.5818 121.269 51.9828 121.67 51.9828 122.165V123.837C51.9828 124.332 51.5818 124.732 51.0868 124.732" fill="#311643"/>
<path fill-rule="evenodd" clip-rule="evenodd" d="M57.478 137.645C55.88 137.645 54.792 137.044 54.133 136.497C53.302 135.807 52.957 135.054 52.942 135.022C52.849 134.816 52.941 134.573 53.148 134.48C53.354 134.387 53.597 134.478 53.69 134.684C53.737 134.786 54.872 137.165 58.168 136.784C58.394 136.757 58.597 136.919 58.623 137.144C58.649 137.37 58.488 137.573 58.263 137.599C57.989 137.63 57.727 137.645 57.478 137.645" fill="#311643"/>
<path fill-rule="evenodd" clip-rule="evenodd" d="M84.2386 398.061L85.9176 405.04L104.229 410.79L101.596 398.061H84.2386Z" fill="#FCBEB7"/>
<path fill-rule="evenodd" clip-rule="evenodd" d="M22.5443 398.061L23.0443 406.682L21.9033 407.103L21.1503 410.793L39.4443 405.04L39.9013 398.061H22.5443Z" fill="#FCBEB7"/>
<path fill-rule="evenodd" clip-rule="evenodd" d="M118.352 413.5L103.466 407.102L104.229 410.79L85.918 405.039V410.286C85.918 412.132 86.883 413.804 88.399 414.744L89.975 419.246C90.11 419.635 90.477 419.896 90.89 419.896C91.426 419.896 91.86 419.461 91.86 418.926V415.997L104.375 419.896H117.036C118.876 419.896 120.369 418.403 120.369 416.563C120.369 415.23 119.576 414.026 118.352 413.5" fill="#2F3D6C"/>
<path fill-rule="evenodd" clip-rule="evenodd" d="M39.4608 410.235L39.4448 404.988L21.1508 410.793L21.9028 407.102L7.03682 413.545C5.81482 414.075 5.02482 415.281 5.02882 416.613C5.03382 418.454 6.53082 419.942 8.37182 419.936L21.0318 419.899L33.9728 415.826L33.9818 418.892C33.9828 419.427 34.4188 419.861 34.9548 419.859C35.3668 419.858 35.7328 419.596 35.8688 419.207L37.5768 414.277C38.7488 413.298 39.4648 411.83 39.4608 410.235" fill="#2F3D6C"/>
<path fill-rule="evenodd" clip-rule="evenodd" d="M25.3129 222.541L18.5589 251.142C16.6089 259.401 15.8399 267.895 16.2769 276.371L22.5439 398.061H39.9009L47.3129 271.77L84.2389 398.061H101.596L71.0349 222.541H25.3129Z" fill="#6277D7"/>
<path fill-rule="evenodd" clip-rule="evenodd" d="M48.2792 162.137C51.3612 162.137 53.8262 159.169 55.4882 156.163H37.9122C40.5932 159.16 44.2642 162.137 48.2792 162.137" fill="white"/>
<path fill-rule="evenodd" clip-rule="evenodd" d="M81.165 162.367C78.456 158.149 74.335 155.032 69.54 153.572L57.892 150.025C57.892 150.515 57.04 153.355 55.488 156.163C53.826 159.169 51.361 162.137 48.279 162.137C44.265 162.137 40.593 159.16 37.913 156.163C35.193 153.121 33.494 150.056 33.494 150.056L21.393 155.663C16.439 157.958 12.792 162.373 11.475 167.671L2.54797 203.572L18.965 203.577L22.993 189.636L25.313 222.541H71.035L75.189 187.518L86.081 197.314L95.115 184.081L81.165 162.367Z" fill="#FE9ECC"/>
<path fill-rule="evenodd" clip-rule="evenodd" d="M147.061 148.777L146.365 148.662L146.257 148.236C146.052 147.434 145.355 146.854 144.53 146.798L134.769 146.139L127.979 143.378L131.77 138.646C132.398 137.863 132.31 136.726 131.568 136.048L123.571 142.211C122.787 142.815 122.136 143.575 121.659 144.443L119.461 148.448L119.451 148.434L86.0804 197.315L90.6654 201.505C94.4564 204.967 100.506 203.841 102.798 199.248L124.478 155.786L132.379 156.538C134.156 156.707 135.949 156.528 137.658 156.011L141.84 154.748C142.55 154.533 142.92 153.753 142.638 153.067L145.617 152.494C146.173 152.386 146.594 151.928 146.653 151.365L146.704 150.882H146.887C147.472 150.882 147.947 150.408 147.947 149.823C147.947 149.304 147.572 148.863 147.061 148.777" fill="#FCBEB7"/>
<path fill-rule="evenodd" clip-rule="evenodd" d="M95.1152 184.081L82.4282 194.029L86.0802 197.314L95.1152 184.081Z" fill="#FF78BA"/>
<path fill-rule="evenodd" clip-rule="evenodd" d="M48.7309 166.412C46.1889 166.412 43.6029 165.639 41.0429 164.113C39.0109 162.902 36.9909 161.217 35.0389 159.104C31.7249 155.517 29.7129 151.853 29.6929 151.817L30.3659 151.505C30.3859 151.541 32.3429 155.09 35.5979 158.609C37.4999 160.667 39.4629 162.305 41.4319 163.476C43.8719 164.93 46.3279 165.666 48.7309 165.666C51.0019 165.666 53.0469 164.907 54.8099 163.411C56.2359 162.201 57.4849 160.507 58.5239 158.376C60.3069 154.721 60.8549 150.966 60.8599 150.93L61.5829 151.149C61.5609 151.305 61.0279 154.943 59.1949 158.703C58.1109 160.927 56.7979 162.702 55.2929 163.98C53.3919 165.594 51.1839 166.412 48.7309 166.412" fill="white"/>
<path fill-rule="evenodd" clip-rule="evenodd" d="M84.2845 311.344C84.2845 315.932 80.5645 319.652 75.9765 319.652C71.3885 319.652 67.6685 315.932 67.6685 311.344C67.6685 306.755 71.3885 303.035 75.9765 303.035C80.5645 303.035 84.2845 306.755 84.2845 311.344" fill="#4A5EA3"/>
<path fill-rule="evenodd" clip-rule="evenodd" d="M40.7567 311.344C40.7567 315.932 37.0367 319.652 32.4487 319.652C27.8607 319.652 24.1407 315.932 24.1407 311.344C24.1407 306.755 27.8607 303.035 32.4487 303.035C37.0367 303.035 40.7567 306.755 40.7567 311.344" fill="#4A5EA3"/>
<path fill-rule="evenodd" clip-rule="evenodd" d="M80.0389 160.78C79.2019 161.333 78.1989 161.653 77.1219 161.653C74.1909 161.653 71.8149 159.278 71.8149 156.346C71.8149 155.716 71.9249 155.11 72.1269 154.55C75.2239 155.957 77.9399 158.092 80.0389 160.78" fill="#FF78BA"/>
<path fill-rule="evenodd" clip-rule="evenodd" d="M21.4642 159.357C21.4642 162.288 19.0892 164.664 16.1582 164.664C14.9812 164.664 13.8932 164.281 13.0132 163.631C14.6682 160.486 17.2282 157.876 20.3962 156.164C21.0672 157.052 21.4642 158.158 21.4642 159.357" fill="#FF78BA"/>
<path fill-rule="evenodd" clip-rule="evenodd" d="M38.1629 232.524L76.2719 231.085C76.9569 231.059 77.4919 230.482 77.4659 229.796L75.4279 175.816C75.4019 175.13 74.8249 174.596 74.1389 174.622L36.0299 176.061C35.3449 176.087 34.8099 176.664 34.8359 177.349L36.8749 231.33C36.9009 232.015 37.4769 232.55 38.1629 232.524" fill="#4A5EA3"/>
<path fill-rule="evenodd" clip-rule="evenodd" d="M38.0434 229.613L75.9594 233.708C76.6414 233.782 77.2534 233.289 77.3274 232.606L83.1274 178.9C83.2014 178.217 82.7084 177.605 82.0254 177.532L44.1104 173.436C43.4284 173.363 42.8154 173.856 42.7424 174.538L36.9414 228.245C36.8684 228.926 37.3614 229.539 38.0434 229.613" fill="#4A5EA3"/>
<path fill-rule="evenodd" clip-rule="evenodd" d="M83.1512 208.151C83.1212 207.428 82.7992 206.749 82.2612 206.266L81.5492 205.63L81.5162 205.293C81.3892 204.021 80.3512 203.034 79.0752 202.971L74.4672 202.746L76.8952 198.997C77.0582 198.745 77.1082 198.437 77.0342 198.147C76.8532 197.443 76.0382 197.119 75.4232 197.507L62.3002 205.787L18.9642 203.578L2.54624 203.573L0.568244 210.571C-0.975756 216.036 3.48324 221.335 9.13124 220.746L62.3002 215.208L77.4192 217.532L78.0922 217.35C79.2522 217.037 80.0602 215.99 80.0712 214.79L80.0802 213.856L80.1072 213.844C81.0982 213.401 81.7232 212.403 81.6902 211.317L81.6732 210.768L82.2292 210.287C82.8452 209.753 83.1852 208.966 83.1512 208.151" fill="#FCBEB7"/>
<path fill-rule="evenodd" clip-rule="evenodd" d="M10.4779 216.101C10.4779 218.078 9.43493 219.811 7.86893 220.781C3.74293 220.574 0.510926 217.233 0.273926 213.249C1.23793 211.662 2.98393 210.601 4.97793 210.601C8.01593 210.601 10.4779 213.063 10.4779 216.101" fill="#F9AFAB"/>
<path fill-rule="evenodd" clip-rule="evenodd" d="M101.754 200.828C99.1003 203.941 94.3203 204.491 91.0153 201.804C91.3123 199.047 93.6473 196.9 96.4833 196.9C98.9743 196.9 101.078 198.557 101.754 200.828" fill="#F9AFAB"/>
<path fill-rule="evenodd" clip-rule="evenodd" d="M40.1215 232.449C40.1215 232.449 73.9755 239.434 73.9705 239.4C73.9645 239.367 72.9215 233.38 72.9215 233.38L58.0395 231.772L40.1215 232.449Z" fill="#4A5EA3"/>
<path fill-rule="evenodd" clip-rule="evenodd" d="M39.3798 175.935L39.4928 204.623L42.6048 175.813L39.3798 175.935Z" fill="#2F3D6C"/>
</svg>
