<svg width="427" height="421" viewBox="0 0 427 421" fill="none" xmlns="http://www.w3.org/2000/svg">
<path fill-rule="evenodd" clip-rule="evenodd" d="M59.0946 335.936L48.8506 420.859H45.4916L55.7346 335.936H59.0946Z" fill="#D2DCFF"/>
<path fill-rule="evenodd" clip-rule="evenodd" d="M13.827 335.935L12.675 345.486L3.584 420.859H0.223999L9.361 345.113L10.467 335.935H13.827Z" fill="#D2DCFF"/>
<path fill-rule="evenodd" clip-rule="evenodd" d="M59.0946 420.859H55.7346L54.3186 409.114L52.6386 395.188L47.1136 349.38L45.4916 335.935H48.8516L50.5196 349.765L54.3186 381.259L55.9976 395.185L59.0946 420.859Z" fill="#D2DCFF"/>
<path fill-rule="evenodd" clip-rule="evenodd" d="M104.361 420.859H101.001L93.0512 354.944H93.0502L90.7582 335.935H94.1182L96.4552 355.31L104.361 420.859Z" fill="#D2DCFF"/>
<path fill-rule="evenodd" clip-rule="evenodd" d="M10.631 330.535H13.991V279.165H10.631V330.535Z" fill="#D2DCFF"/>
<path fill-rule="evenodd" clip-rule="evenodd" d="M56.283 330.535H59.642V279.165H56.283V330.535Z" fill="#D2DCFF"/>
<path fill-rule="evenodd" clip-rule="evenodd" d="M95.5281 330.535H49.3691C50.8601 330.535 52.0691 331.744 52.0691 333.235C52.0691 334.726 50.8601 335.934 49.3691 335.934H95.5281C97.0191 335.934 98.2281 334.726 98.2281 333.235C98.2281 331.744 97.0191 330.535 95.5281 330.535" fill="#D2DCFF"/>
<path fill-rule="evenodd" clip-rule="evenodd" d="M52.0687 333.236V333.236C52.0687 331.745 50.8607 330.536 49.3697 330.536H14.0627H9.5147C8.0237 330.536 6.8147 331.745 6.8147 333.236C6.8147 334.727 8.0237 335.935 9.5147 335.935H14.0627H49.3697C50.8607 335.935 52.0687 334.727 52.0687 333.236" fill="#86A2E2"/>
<path fill-rule="evenodd" clip-rule="evenodd" d="M62.3877 240.507H7.88666C5.80866 240.507 4.12366 242.192 4.12366 244.27V275.403C4.12366 277.481 5.80866 279.165 7.88666 279.165H62.3877C64.4657 279.165 66.1507 277.481 66.1507 275.403V244.27C66.1507 242.192 64.4657 240.507 62.3877 240.507" fill="#D2DCFF"/>
<path fill-rule="evenodd" clip-rule="evenodd" d="M13.827 335.935L12.675 345.486C11.461 345.349 10.352 345.224 9.36096 345.113L10.467 335.935H13.827Z" fill="#AEC3FF"/>
<path fill-rule="evenodd" clip-rule="evenodd" d="M48.8515 335.935L50.5195 349.765C49.3785 349.636 48.2425 349.508 47.1135 349.38L45.4915 335.935H48.8515Z" fill="#AEC3FF"/>
<path fill-rule="evenodd" clip-rule="evenodd" d="M96.4551 355.31C95.3711 355.194 94.2341 355.072 93.0511 354.944V354.944L90.7581 335.935H94.1181L96.4551 355.31Z" fill="#AEC3FF"/>
<path fill-rule="evenodd" clip-rule="evenodd" d="M10.6312 279.165H13.9912V286.261L10.6312 285.889V279.165Z" fill="#AEC3FF"/>
<path fill-rule="evenodd" clip-rule="evenodd" d="M59.6424 279.165V291.314L56.2834 290.942V279.165H59.6424Z" fill="#AEC3FF"/>
<path fill-rule="evenodd" clip-rule="evenodd" d="M9.76001 110.748H56.908V53.4082H9.76001V110.748Z" fill="#D2DCFF"/>
<path fill-rule="evenodd" clip-rule="evenodd" d="M11.92 108.937H54.748V55.2202H11.92V108.937Z" fill="#D2DCFF"/>
<path fill-rule="evenodd" clip-rule="evenodd" d="M11.9198 94.7022L25.8568 80.7652L32.8128 87.7222L45.8988 74.6362L54.7478 83.4852V108.936H11.9198V94.7022Z" fill="#AEC3FF"/>
<path fill-rule="evenodd" clip-rule="evenodd" d="M28.472 69.216C28.472 71.279 26.8 72.951 24.736 72.951C22.673 72.951 21 71.279 21 69.216C21 67.153 22.673 65.48 24.736 65.48C26.8 65.48 28.472 67.153 28.472 69.216" fill="#AEC3FF"/>
<path fill-rule="evenodd" clip-rule="evenodd" d="M313.351 165.72H157.051C152.653 165.72 149.088 162.155 149.088 157.757V8.94591C149.088 4.54791 152.653 0.98291 157.051 0.98291H313.351C317.748 0.98291 321.314 4.54791 321.314 8.94591V157.757C321.314 162.155 317.748 165.72 313.351 165.72" fill="#89AEFF"/>
<path fill-rule="evenodd" clip-rule="evenodd" d="M246.6 24.8283H172.439C171.12 24.8283 170.049 23.7583 170.049 22.4383C170.049 21.1183 171.12 20.0493 172.439 20.0493H246.6C247.92 20.0493 248.99 21.1183 248.99 22.4383C248.99 23.7583 247.92 24.8283 246.6 24.8283" fill="#D2DCFF"/>
<path fill-rule="evenodd" clip-rule="evenodd" d="M222.759 36.7522H172.439C171.119 36.7522 170.049 35.6822 170.049 34.3622C170.049 33.0422 171.119 31.9722 172.439 31.9722H222.759C224.079 31.9722 225.149 33.0422 225.149 34.3622C225.149 35.6822 224.079 36.7522 222.759 36.7522" fill="#D2DCFF"/>
<path fill-rule="evenodd" clip-rule="evenodd" d="M185.009 56.2882H171.756C170.813 56.2882 170.049 55.5242 170.049 54.5822C170.049 53.6392 170.813 52.8752 171.756 52.8752H185.009C185.952 52.8752 186.716 53.6392 186.716 54.5822C186.716 55.5242 185.952 56.2882 185.009 56.2882" fill="#6277D7"/>
<path fill-rule="evenodd" clip-rule="evenodd" d="M282.249 114.91H241.293C240.35 114.91 239.586 114.146 239.586 113.203V106.306C239.586 105.364 240.35 104.599 241.293 104.599H282.249C283.191 104.599 283.956 105.364 283.956 106.306V113.203C283.956 114.146 283.191 114.91 282.249 114.91" fill="#D2DCFF"/>
<path fill-rule="evenodd" clip-rule="evenodd" d="M298.753 133.653H241.293C240.35 133.653 239.586 132.889 239.586 131.947V125.049C239.586 124.107 240.35 123.342 241.293 123.342H298.753C299.695 123.342 300.46 124.107 300.46 125.049V131.947C300.46 132.889 299.695 133.653 298.753 133.653" fill="#D2DCFF"/>
<path fill-rule="evenodd" clip-rule="evenodd" d="M195.556 144.781C195.556 143.022 196.981 141.597 198.74 141.597C186.349 141.597 176.27 131.517 176.27 119.127C176.27 106.737 186.349 96.6566 198.74 96.6566C211.13 96.6566 221.21 106.737 221.21 119.127C221.21 117.369 222.636 115.943 224.393 115.943C226.152 115.943 227.577 117.369 227.577 119.127C227.577 103.226 214.64 90.2896 198.74 90.2896C182.839 90.2896 169.902 103.226 169.902 119.127C169.902 135.028 182.839 147.965 198.74 147.965C196.981 147.965 195.556 146.539 195.556 144.781" fill="#D2DCFF"/>
<path fill-rule="evenodd" clip-rule="evenodd" d="M224.394 115.943C222.636 115.943 221.21 117.369 221.21 119.127C221.21 131.517 211.13 141.597 198.74 141.597C196.982 141.597 195.557 143.022 195.557 144.781C195.557 146.539 196.982 147.964 198.74 147.964C214.641 147.964 227.578 135.028 227.578 119.127C227.578 117.369 226.153 115.943 224.394 115.943" fill="#6277D7"/>
<path fill-rule="evenodd" clip-rule="evenodd" d="M423.284 55.1057H358.091C356.662 55.1057 355.504 56.2637 355.504 57.6927V122.886C355.504 124.315 356.662 125.473 358.091 125.473H423.284C424.713 125.473 425.871 124.315 425.871 122.886V57.6927C425.871 56.2637 424.713 55.1057 423.284 55.1057" fill="#89AEFF"/>
<path fill-rule="evenodd" clip-rule="evenodd" d="M380.609 90.2902H400.765V55.1062H380.609V90.2902Z" fill="#6277D7"/>
<path fill-rule="evenodd" clip-rule="evenodd" d="M366.886 271.93V270.548C366.886 270.12 366.539 269.774 366.112 269.774H334.034C332.416 269.774 331.104 271.086 331.104 272.704V275.062C331.104 276.68 332.416 277.992 334.034 277.992H366.112C366.539 277.992 366.886 277.646 366.886 277.218V275.835C366.886 275.408 366.539 275.062 366.112 275.062H335.213C334.562 275.062 334.034 274.534 334.034 273.883C334.034 273.232 334.562 272.704 335.213 272.704H366.112C366.539 272.704 366.886 272.358 366.886 271.93" fill="#6277D7"/>
<path fill-rule="evenodd" clip-rule="evenodd" d="M365.5 272.704V275.061H335.213C334.562 275.061 334.034 274.533 334.034 273.883C334.034 273.231 334.562 272.704 335.213 272.704H365.5Z" fill="#D2DCFF"/>
<path fill-rule="evenodd" clip-rule="evenodd" d="M364.594 263.712V262.329C364.594 261.901 364.247 261.556 363.82 261.556H336.326C334.707 261.556 333.396 262.867 333.396 264.485V266.843C333.396 268.461 334.707 269.774 336.326 269.774H363.82C364.247 269.774 364.594 269.427 364.594 268.999V267.617C364.594 267.19 364.247 266.843 363.82 266.843H337.505C336.854 266.843 336.326 266.316 336.326 265.664C336.326 265.014 336.854 264.485 337.505 264.485H363.82C364.247 264.485 364.594 264.139 364.594 263.712" fill="#FE9ECC"/>
<path fill-rule="evenodd" clip-rule="evenodd" d="M363.575 264.486V266.843H337.506C336.854 266.843 336.327 266.316 336.327 265.665C336.327 265.014 336.854 264.486 337.506 264.486H363.575Z" fill="#FFD9E8"/>
<path fill-rule="evenodd" clip-rule="evenodd" d="M341.289 283.415L324.293 420.837H320.918L337.915 283.415H341.289Z" fill="#D2DCFF"/>
<path fill-rule="evenodd" clip-rule="evenodd" d="M385.951 420.837H382.577L368.036 303.271L365.58 283.415H368.955L371.376 302.988L385.951 420.837Z" fill="#D2DCFF"/>
<path fill-rule="evenodd" clip-rule="evenodd" d="M172.049 283.415L167.502 320.182L155.052 420.837H151.677L164.091 320.47L168.674 283.415H172.049Z" fill="#D2DCFF"/>
<path fill-rule="evenodd" clip-rule="evenodd" d="M216.71 420.837H213.335L200.541 317.396L196.338 283.415H199.713L203.881 317.114L216.71 420.837Z" fill="#D2DCFF"/>
<path fill-rule="evenodd" clip-rule="evenodd" d="M168.674 283.415H172.049L167.502 320.182L164.091 320.47L168.674 283.415Z" fill="#AEC3FF"/>
<path fill-rule="evenodd" clip-rule="evenodd" d="M199.713 283.415L203.881 317.114L200.541 317.395L196.338 283.415H199.713Z" fill="#AEC3FF"/>
<path fill-rule="evenodd" clip-rule="evenodd" d="M371.375 302.989L368.035 303.271L365.579 283.416H368.954L371.375 302.989Z" fill="#AEC3FF"/>
<path fill-rule="evenodd" clip-rule="evenodd" d="M378.353 283.415H205.788V277.992H378.353C379.599 277.992 380.609 279.002 380.609 280.248V281.158C380.609 282.404 379.599 283.415 378.353 283.415" fill="#D2DCFF"/>
<path fill-rule="evenodd" clip-rule="evenodd" d="M205.788 283.415H160.129C158.883 283.415 157.873 282.404 157.873 281.158V280.248C157.873 279.002 158.883 277.992 160.129 277.992H205.788V283.415Z" fill="#86A2E2"/>
<path fill-rule="evenodd" clip-rule="evenodd" d="M205.749 264.805H220.886C221.633 264.805 222.211 265.457 222.123 266.199L220.842 276.895C220.768 277.521 220.236 277.993 219.605 277.993H207.029C206.399 277.993 205.868 277.521 205.793 276.895L204.513 266.199C204.424 265.457 205.002 264.805 205.749 264.805" fill="#D2DCFF"/>
<path fill-rule="evenodd" clip-rule="evenodd" d="M218.514 260.439V255.575L215.604 261.104V252.125L213.318 257.778L211.032 252.125V261.104L208.121 255.575V260.439L203.881 253.622L205.749 264.804H213.318H220.886L222.754 253.622L218.514 260.439Z" fill="#6277D7"/>
<path fill-rule="evenodd" clip-rule="evenodd" d="M327.674 264.099H232.974L243.532 207.184H338.233L327.674 264.099Z" fill="#D2DCFF"/>
<path fill-rule="evenodd" clip-rule="evenodd" d="M279.86 238.96H290.497L304.5 277.992H285.919L279.86 238.96Z" fill="#86A2E2"/>
<path fill-rule="evenodd" clip-rule="evenodd" d="M279.477 275.487H247.867C247.291 275.487 246.825 275.954 246.825 276.529V276.95C246.825 277.526 247.291 277.993 247.867 277.993H279.477C280.052 277.993 280.519 277.526 280.519 276.95V276.529C280.519 275.954 280.052 275.487 279.477 275.487" fill="#86A2E2"/>
<path fill-rule="evenodd" clip-rule="evenodd" d="M279.86 238.96V264.099H283.762L279.86 238.96Z" fill="#AEC3FF"/>
<path fill-rule="evenodd" clip-rule="evenodd" d="M132.196 118.093C119.106 120.275 102.796 115.403 100.751 112.3C96.0107 119.523 93.6037 119.296 93.6037 119.296V124.713L92.5327 123.643C92.2037 122.896 91.6797 122.155 90.8957 122.155C86.5857 122.155 86.2837 134.143 93.5387 134.836C93.6817 135.306 93.8287 135.745 93.9797 136.143V155.33H110.342V147.783C111.442 148.086 112.496 148.259 113.464 148.259C119.915 148.259 130.907 138.774 132.154 123.642C132.229 120.786 132.196 118.093 132.196 118.093" fill="#FCBEB7"/>
<path fill-rule="evenodd" clip-rule="evenodd" d="M112.335 97.5559C101.051 97.5559 98.7943 103.575 98.7943 103.575C93.9803 103.575 86.6073 112.375 91.0453 122.156L91.0683 122.178L93.6043 124.713V119.296C93.6043 119.296 96.0113 119.523 100.75 112.3C102.795 115.403 119.106 120.275 132.195 118.093C132.195 118.093 132.229 120.786 132.154 123.642C132.154 123.645 132.154 123.648 132.153 123.651C137.043 109.508 127.23 97.5559 112.335 97.5559" fill="#311643"/>
<path fill-rule="evenodd" clip-rule="evenodd" d="M107.483 127.772C106.984 127.772 106.58 127.368 106.58 126.87V125.183C106.58 124.685 106.984 124.281 107.483 124.281C107.982 124.281 108.386 124.685 108.386 125.183V126.87C108.386 127.368 107.982 127.772 107.483 127.772" fill="#311643"/>
<path fill-rule="evenodd" clip-rule="evenodd" d="M124.222 127.772C123.723 127.772 123.319 127.368 123.319 126.87V125.183C123.319 124.685 123.723 124.281 124.222 124.281C124.721 124.281 125.124 124.685 125.124 125.183V126.87C125.124 127.368 124.721 127.772 124.222 127.772" fill="#311643"/>
<path fill-rule="evenodd" clip-rule="evenodd" d="M114.12 138.31C112.509 138.31 111.412 137.705 110.747 137.153C109.909 136.456 109.561 135.698 109.546 135.665C109.453 135.457 109.545 135.212 109.754 135.119C109.962 135.025 110.206 135.117 110.3 135.324C110.347 135.426 111.491 137.827 114.816 137.442C115.043 137.416 115.248 137.579 115.275 137.805C115.301 138.032 115.138 138.238 114.911 138.264C114.635 138.295 114.371 138.31 114.12 138.31" fill="#311643"/>
<path fill-rule="evenodd" clip-rule="evenodd" d="M105.953 130.794C105.953 133.259 103.954 135.257 101.49 135.257C99.0245 135.257 97.0265 133.259 97.0265 130.794C97.0265 128.328 99.0245 126.33 101.49 126.33C103.954 126.33 105.953 128.328 105.953 130.794" fill="#F49795"/>
<path fill-rule="evenodd" clip-rule="evenodd" d="M131.69 127.088C131.125 130.086 130.176 132.818 128.978 135.251C126.617 135.135 124.739 133.184 124.739 130.793C124.739 128.328 126.737 126.33 129.202 126.33C130.123 126.33 130.979 126.609 131.69 127.088" fill="#F49795"/>
<path fill-rule="evenodd" clip-rule="evenodd" d="M124.222 129.041C121.19 129.041 118.724 126.575 118.724 123.544C118.724 120.512 121.19 118.046 124.222 118.046C127.253 118.046 129.72 120.512 129.72 123.544C129.72 126.575 127.253 129.041 124.222 129.041M107.484 129.041C104.452 129.041 101.986 126.575 101.986 123.544C101.986 120.512 104.452 118.046 107.484 118.046C110.515 118.046 112.981 120.512 112.981 123.544C112.981 126.575 110.515 129.041 107.484 129.041M124.222 117.218C120.963 117.218 118.272 119.696 117.933 122.866C116.161 122.032 114.597 122.484 113.772 122.863C113.431 119.694 110.742 117.218 107.484 117.218C103.996 117.218 101.158 120.056 101.158 123.544C101.158 127.031 103.996 129.869 107.484 129.869C110.893 129.869 113.68 127.157 113.803 123.777C114.326 123.48 116.01 122.712 117.903 123.782C118.029 127.16 120.814 129.869 124.222 129.869C127.71 129.869 130.547 127.031 130.547 123.544C130.547 120.056 127.71 117.218 124.222 117.218" fill="white"/>
<path fill-rule="evenodd" clip-rule="evenodd" d="M110.342 155.33V147.783C106.642 146.767 102.43 144.276 99.2637 141.9L110.342 155.33Z" fill="#F9AFAB"/>
<path fill-rule="evenodd" clip-rule="evenodd" d="M149.452 399.038H132.123L102.986 270.906L73.1365 399.038H55.8075L71.9535 255.288L135.973 255.287L149.452 399.038Z" fill="#6277D7"/>
<path fill-rule="evenodd" clip-rule="evenodd" d="M133.5 406.005V418.252C133.5 419.68 134.658 420.837 136.085 420.837H170.819C171.15 420.837 171.418 420.569 171.418 420.239V417.88C171.418 416.85 170.828 415.909 169.899 415.461L150.314 406.005H133.5Z" fill="#2F3D6C"/>
<path fill-rule="evenodd" clip-rule="evenodd" d="M71.2517 406.005V418.252C71.2517 419.68 70.0937 420.837 68.6667 420.837H33.9317C33.6017 420.837 33.3337 420.569 33.3337 420.239V417.88C33.3337 416.85 33.9237 415.909 34.8527 415.461L54.4367 406.005H71.2517Z" fill="#2F3D6C"/>
<path fill-rule="evenodd" clip-rule="evenodd" d="M132.124 399.038L133.429 406.005H150.314L149.453 399.038H132.124Z" fill="#FCBEB7"/>
<path fill-rule="evenodd" clip-rule="evenodd" d="M55.8075 399.038L54.4365 406.005H71.2515L73.1365 399.038H55.8075Z" fill="#FCBEB7"/>
<path fill-rule="evenodd" clip-rule="evenodd" d="M71.6078 258.371L136.608 262.043L135.974 255.287L71.9538 255.288" fill="#4A5EA3"/>
<path fill-rule="evenodd" clip-rule="evenodd" d="M56.911 179.536L71.684 190.893Z" fill="#FCBEB7"/>
<path fill-rule="evenodd" clip-rule="evenodd" d="M131.733 193.334L135.974 255.287H71.9543L75.8773 211.141L75.0073 187.582L71.6843 190.894L56.9113 179.536L64.8483 166.601C66.8123 163.401 69.6503 160.83 73.0263 159.191L91.2353 150.354L91.9013 150.03L93.9803 149.021C93.9803 149.021 103.483 155.257 110.313 149.021L113.962 150.396L114.704 150.676L134.003 157.95C137.025 159.09 139.485 161.361 140.859 164.285L149.044 181.696L131.733 193.334Z" fill="#89AEFF"/>
<path fill-rule="evenodd" clip-rule="evenodd" d="M113.962 150.397C110.831 152.621 107.099 153.819 103.181 153.819C99.0544 153.819 95.1314 152.489 91.9014 150.031L91.2354 150.354C94.6294 153.029 98.7944 154.481 103.181 154.481C107.388 154.481 111.39 153.146 114.704 150.676L113.962 150.397Z" fill="white"/>
<path fill-rule="evenodd" clip-rule="evenodd" d="M72.2323 161.302C72.2323 164.341 69.7683 166.804 66.7293 166.804C66.0923 166.804 65.4823 166.696 64.9133 166.497C66.6703 163.674 69.1103 161.346 72.0033 159.727C72.1523 160.226 72.2323 160.755 72.2323 161.302" fill="#4A62D3"/>
<path fill-rule="evenodd" clip-rule="evenodd" d="M83.8524 312.463C83.8524 317.044 80.1394 320.758 75.5584 320.758C70.9774 320.758 67.2634 317.044 67.2634 312.463C67.2634 307.882 70.9774 304.168 75.5584 304.168C80.1394 304.168 83.8524 307.882 83.8524 312.463" fill="#4A5EA3"/>
<path fill-rule="evenodd" clip-rule="evenodd" d="M139.19 312.463C139.19 317.044 135.476 320.758 130.895 320.758C126.315 320.758 122.601 317.044 122.601 312.463C122.601 307.882 126.315 304.168 130.895 304.168C135.476 304.168 139.19 307.882 139.19 312.463" fill="#4A5EA3"/>
<path fill-rule="evenodd" clip-rule="evenodd" d="M103.7 247.085L51.5616 261.963C50.7036 262.208 49.8096 261.711 49.5646 260.854L40.2196 228.102C39.9736 227.244 40.4706 226.35 41.3286 226.106L93.4666 211.227C94.3246 210.982 95.2186 211.479 95.4636 212.337L104.81 245.088C105.054 245.946 104.557 246.84 103.7 247.085" fill="#4A5EA3"/>
<path fill-rule="evenodd" clip-rule="evenodd" d="M122.503 191.845H108.507C108.042 191.845 107.664 191.468 107.664 191.002V164.833C107.664 164.368 108.042 163.991 108.507 163.991H122.503C122.968 163.991 123.346 164.368 123.346 164.833V191.002C123.346 191.468 122.968 191.845 122.503 191.845" fill="#4A5EA3"/>
<path fill-rule="evenodd" clip-rule="evenodd" d="M160.714 209.279L149.045 181.696L140.14 187.649L127.631 176.687L125.074 167.922C125.038 167.641 124.818 167.422 124.539 167.384C123.313 167.221 122.261 168.255 122.401 169.483L122.84 173.323L118.198 173.938C116.946 174.104 115.673 173.995 114.468 173.616L110.15 172.258C108.853 171.85 107.474 172.586 107.089 173.889L105.422 173.504C104.609 173.315 103.793 173.809 103.583 174.617L103.571 174.662C103.391 175.356 103.714 176.084 104.35 176.416C104.01 177.745 104.799 179.101 106.123 179.463L106.161 179.472C105.804 180.812 106.465 182.213 107.725 182.789L110.993 184.282C112.222 184.843 113.569 185.098 114.918 185.025L122.342 184.422L147.551 217.371L147.556 217.377V217.376C149.786 220.037 153.588 220.952 156.845 219.428C160.662 217.643 162.374 213.151 160.714 209.279" fill="#FCBEB7"/>
<path fill-rule="evenodd" clip-rule="evenodd" d="M141.051 164.692C140.455 164.923 139.808 165.049 139.131 165.049C136.192 165.049 133.809 162.667 133.809 159.727C133.809 159.118 133.911 158.533 134.1 157.987C137.078 159.138 139.5 161.393 140.86 164.286L141.051 164.692Z" fill="#4A62D3"/>
<path fill-rule="evenodd" clip-rule="evenodd" d="M141.732 189.045L155.24 196.34L158.294 203.559L141.732 189.045Z" fill="#F9AFAB"/>
<path fill-rule="evenodd" clip-rule="evenodd" d="M71.9209 256.155L52.7979 222.832L56.8439 221.677L71.9209 256.155Z" fill="#2F3D6C"/>
<path fill-rule="evenodd" clip-rule="evenodd" d="M158.294 212.986C158.294 215.884 155.944 218.234 153.046 218.234C150.148 218.234 147.799 215.884 147.799 212.986C147.799 210.089 150.148 207.739 153.046 207.739C155.944 207.739 158.294 210.089 158.294 212.986" fill="#F9AFAB"/>
<path fill-rule="evenodd" clip-rule="evenodd" d="M53.3192 198.046C53.3192 200.756 51.3842 203.013 48.8192 203.511L47.8822 201.331C46.9402 199.142 47.0852 196.636 48.2732 194.569L49.3412 192.71C51.6422 193.394 53.3192 195.525 53.3192 198.046" fill="#F9AFAB"/>
<path fill-rule="evenodd" clip-rule="evenodd" d="M86.1839 250.12L79.6729 247.214C79.2219 247.013 78.8719 246.638 78.7039 246.174L77.7599 243.574L81.0499 244.381L82.0989 246.635C82.4519 247.392 83.3439 247.733 84.1129 247.402L82.7429 243.266C82.4859 242.608 81.9929 242.07 81.3579 241.758L74.4829 238.377L62.6229 199.908L71.6839 190.893L56.9109 179.536L48.2729 194.569C47.0849 196.636 46.9409 199.141 47.8819 201.331L71.8559 256.155L76.6139 256.375C77.1859 256.401 77.7259 256.111 78.0209 255.62L78.5389 254.756L81.0429 254.961C81.5789 255.005 82.0999 254.768 82.4199 254.337L83.0089 253.542L83.3599 253.635C84.3189 253.888 85.3269 253.45 85.7959 252.576L87.5339 253.155C87.9269 251.947 87.3439 250.639 86.1839 250.12" fill="#FCBEB7"/>
<path fill-rule="evenodd" clip-rule="evenodd" d="M365.151 420.837H412.411V373.578H365.151V420.837Z" fill="#D2DCFF"/>
<path fill-rule="evenodd" clip-rule="evenodd" d="M339.12 420.837H365.152V373.578H339.12V420.837Z" fill="#AEC3FF"/>
<path fill-rule="evenodd" clip-rule="evenodd" d="M339.12 383.042H365.152V381.658H339.12V383.042Z" fill="#86A2E2"/>
<path fill-rule="evenodd" clip-rule="evenodd" d="M365.151 383.042H412.411V381.658H365.151V383.042Z" fill="#AEC3FF"/>
<path fill-rule="evenodd" clip-rule="evenodd" d="M397.477 389.809H380.086C379.756 389.809 379.489 389.541 379.489 389.211V389.176C379.489 388.846 379.756 388.579 380.086 388.579H397.477C397.807 388.579 398.075 388.846 398.075 389.176V389.211C398.075 389.541 397.807 389.809 397.477 389.809" fill="#86A2E2"/>
</svg>
