<svg width="495" height="421" viewBox="0 0 495 421" fill="none" xmlns="http://www.w3.org/2000/svg">
<path fill-rule="evenodd" clip-rule="evenodd" d="M268.884 270.951V269.569C268.884 269.141 268.537 268.795 268.11 268.795H236.032C234.414 268.795 233.102 270.107 233.102 271.725V274.083C233.102 275.701 234.414 277.013 236.032 277.013H268.11C268.537 277.013 268.884 276.667 268.884 276.239V274.856C268.884 274.429 268.537 274.083 268.11 274.083H237.211C236.56 274.083 236.032 273.555 236.032 272.904C236.032 272.253 236.56 271.725 237.211 271.725H268.11C268.537 271.725 268.884 271.379 268.884 270.951" fill="#6277D7"/>
<path fill-rule="evenodd" clip-rule="evenodd" d="M267.498 271.726V274.083H237.211C236.56 274.083 236.032 273.555 236.032 272.905C236.032 272.253 236.56 271.726 237.211 271.726H267.498Z" fill="#D2DCFF"/>
<path fill-rule="evenodd" clip-rule="evenodd" d="M266.592 262.733V261.35C266.592 260.922 266.246 260.577 265.818 260.577H238.324C236.706 260.577 235.394 261.888 235.394 263.506V265.864C235.394 267.482 236.706 268.795 238.324 268.795H265.818C266.246 268.795 266.592 268.448 266.592 268.02V266.638C266.592 266.211 266.246 265.864 265.818 265.864H239.503C238.852 265.864 238.324 265.337 238.324 264.685C238.324 264.035 238.852 263.506 239.503 263.506H265.818C266.246 263.506 266.592 263.161 266.592 262.733" fill="#FE9ECC"/>
<path fill-rule="evenodd" clip-rule="evenodd" d="M265.573 263.507V265.864H239.503C238.852 265.864 238.324 265.337 238.324 264.686C238.324 264.035 238.852 263.507 239.503 263.507H265.573Z" fill="#FFD9E8"/>
<path fill-rule="evenodd" clip-rule="evenodd" d="M243.288 282.437L226.291 419.859H222.916L239.913 282.437H243.288Z" fill="#D2DCFF"/>
<path fill-rule="evenodd" clip-rule="evenodd" d="M287.949 419.859H284.574L270.033 302.293L267.577 282.437H270.952L273.373 302.01L287.949 419.859Z" fill="#D2DCFF"/>
<path fill-rule="evenodd" clip-rule="evenodd" d="M74.0467 282.437L69.4997 319.204L57.0497 419.859H53.6747L66.0887 319.492L70.6717 282.437H74.0467Z" fill="#D2DCFF"/>
<path fill-rule="evenodd" clip-rule="evenodd" d="M118.708 419.859H115.333L102.539 316.418L98.3359 282.437H101.711L105.879 316.136L118.708 419.859Z" fill="#D2DCFF"/>
<path fill-rule="evenodd" clip-rule="evenodd" d="M70.6722 282.437H74.0472L69.5002 319.204L66.0892 319.492L70.6722 282.437Z" fill="#AEC3FF"/>
<path fill-rule="evenodd" clip-rule="evenodd" d="M101.711 282.437L105.878 316.136L102.539 316.417L98.3363 282.437H101.711Z" fill="#AEC3FF"/>
<path fill-rule="evenodd" clip-rule="evenodd" d="M273.373 302.01L270.033 302.292L267.577 282.437H270.952L273.373 302.01Z" fill="#AEC3FF"/>
<path fill-rule="evenodd" clip-rule="evenodd" d="M280.35 282.436H107.785V277.013H280.35C281.596 277.013 282.606 278.023 282.606 279.269V280.179C282.606 281.425 281.596 282.436 280.35 282.436" fill="#D2DCFF"/>
<path fill-rule="evenodd" clip-rule="evenodd" d="M107.786 282.436H62.1265C60.8805 282.436 59.8695 281.425 59.8695 280.179V279.269C59.8695 278.023 60.8805 277.013 62.1265 277.013H107.786V282.436Z" fill="#86A2E2"/>
<path fill-rule="evenodd" clip-rule="evenodd" d="M107.747 263.826H122.884C123.63 263.826 124.209 264.478 124.121 265.22L122.84 275.916C122.765 276.542 122.234 277.014 121.603 277.014H109.027C108.397 277.014 107.866 276.542 107.79 275.916L106.51 265.22C106.421 264.478 107 263.826 107.747 263.826" fill="#D2DCFF"/>
<path fill-rule="evenodd" clip-rule="evenodd" d="M120.512 259.461V254.597L117.602 260.126V251.147L115.316 256.8L113.029 251.147V260.126L110.119 254.597V259.461L105.879 252.644L107.747 263.826H115.316H122.884L124.752 252.644L120.512 259.461Z" fill="#6277D7"/>
<path fill-rule="evenodd" clip-rule="evenodd" d="M229.672 263.12H134.972L145.53 206.205H240.23L229.672 263.12Z" fill="#D2DCFF"/>
<path fill-rule="evenodd" clip-rule="evenodd" d="M181.858 237.981H192.495L206.497 277.013H187.917L181.858 237.981Z" fill="#86A2E2"/>
<path fill-rule="evenodd" clip-rule="evenodd" d="M181.475 274.508H149.865C149.289 274.508 148.823 274.975 148.823 275.55V275.971C148.823 276.547 149.289 277.014 149.865 277.014H181.475C182.051 277.014 182.517 276.547 182.517 275.971V275.55C182.517 274.975 182.051 274.508 181.475 274.508" fill="#86A2E2"/>
<path fill-rule="evenodd" clip-rule="evenodd" d="M181.858 237.981V263.12H185.76L181.858 237.981Z" fill="#AEC3FF"/>
<path fill-rule="evenodd" clip-rule="evenodd" d="M329.295 334.936L339.539 419.859H342.898L332.655 334.936H329.295Z" fill="#D2DCFF"/>
<path fill-rule="evenodd" clip-rule="evenodd" d="M374.562 334.935L375.714 344.486L384.805 419.859H388.165L379.029 344.113L377.922 334.935H374.562Z" fill="#D2DCFF"/>
<path fill-rule="evenodd" clip-rule="evenodd" d="M329.295 419.858H332.655L334.071 408.113L335.751 394.187L341.276 348.379L342.898 334.934H339.538L337.87 348.764L334.071 380.258L332.392 394.184L329.295 419.858Z" fill="#D2DCFF"/>
<path fill-rule="evenodd" clip-rule="evenodd" d="M284.028 419.858H287.388L295.338 353.943H295.339L297.631 334.934H294.271L291.934 354.309L284.028 419.858Z" fill="#D2DCFF"/>
<path fill-rule="evenodd" clip-rule="evenodd" d="M374.398 329.535H377.758V278.165H374.398V329.535Z" fill="#D2DCFF"/>
<path fill-rule="evenodd" clip-rule="evenodd" d="M328.747 329.535H332.106V278.165H328.747V329.535Z" fill="#D2DCFF"/>
<path fill-rule="evenodd" clip-rule="evenodd" d="M292.861 329.535H339.02C337.529 329.535 336.32 330.744 336.32 332.235C336.32 333.726 337.529 334.934 339.02 334.934H292.861C291.37 334.934 290.161 333.726 290.161 332.235C290.161 330.744 291.37 329.535 292.861 329.535" fill="#D2DCFF"/>
<path fill-rule="evenodd" clip-rule="evenodd" d="M336.321 332.235V332.235C336.321 330.744 337.529 329.535 339.021 329.535H374.327H378.875C380.366 329.535 381.575 330.744 381.575 332.235C381.575 333.726 380.366 334.934 378.875 334.934H374.327H339.021C337.529 334.934 336.321 333.726 336.321 332.235" fill="#86A2E2"/>
<path fill-rule="evenodd" clip-rule="evenodd" d="M326.002 239.507H380.503C382.581 239.507 384.266 241.192 384.266 243.27V274.403C384.266 276.481 382.581 278.165 380.503 278.165H326.002C323.924 278.165 322.239 276.481 322.239 274.403V243.27C322.239 241.192 323.924 239.507 326.002 239.507" fill="#D2DCFF"/>
<path fill-rule="evenodd" clip-rule="evenodd" d="M374.562 334.935L375.714 344.486C376.928 344.349 378.037 344.224 379.029 344.113L377.922 334.935H374.562Z" fill="#AEC3FF"/>
<path fill-rule="evenodd" clip-rule="evenodd" d="M339.538 334.935L337.87 348.765C339.011 348.636 340.147 348.508 341.276 348.38L342.898 334.935H339.538Z" fill="#AEC3FF"/>
<path fill-rule="evenodd" clip-rule="evenodd" d="M291.934 354.31C293.018 354.194 294.155 354.072 295.338 353.944H295.339L297.631 334.935H294.271L291.934 354.31Z" fill="#AEC3FF"/>
<path fill-rule="evenodd" clip-rule="evenodd" d="M377.758 278.165H374.398V285.261L377.758 284.889V278.165Z" fill="#AEC3FF"/>
<path fill-rule="evenodd" clip-rule="evenodd" d="M328.747 278.165V290.314L332.106 289.942V278.165H328.747Z" fill="#AEC3FF"/>
<path fill-rule="evenodd" clip-rule="evenodd" d="M310.555 197.808C311.802 212.939 322.795 222.424 329.245 222.424C330.213 222.424 331.268 222.251 332.367 221.95V229.496H348.729V210.308C348.88 209.911 349.028 209.472 349.171 209.001C356.425 208.309 356.124 196.321 351.814 196.321C351.03 196.321 350.506 197.062 350.176 197.808L349.106 198.878V193.462C349.106 193.462 346.698 193.688 341.959 186.466C339.914 189.569 323.603 194.44 310.514 192.258C310.514 192.258 310.48 194.953 310.555 197.808" fill="#FCBEB7"/>
<path fill-rule="evenodd" clip-rule="evenodd" d="M330.374 171.721C341.658 171.721 343.915 177.74 343.915 177.74C348.729 177.74 356.102 186.541 351.664 196.321L351.641 196.343L349.106 198.878V193.462C349.106 193.462 346.698 193.688 341.959 186.466C339.915 189.569 323.603 194.44 310.514 192.258C310.514 192.258 310.48 194.952 310.555 197.808C310.556 197.811 310.556 197.814 310.556 197.816C305.666 183.673 315.479 171.721 330.374 171.721" fill="#311643"/>
<path fill-rule="evenodd" clip-rule="evenodd" d="M335.226 201.939C335.725 201.939 336.129 201.535 336.129 201.036V199.349C336.129 198.851 335.725 198.447 335.226 198.447C334.727 198.447 334.324 198.851 334.324 199.349V201.036C334.324 201.535 334.727 201.939 335.226 201.939" fill="#311643"/>
<path fill-rule="evenodd" clip-rule="evenodd" d="M318.488 201.939C318.987 201.939 319.39 201.535 319.39 201.036V199.349C319.39 198.851 318.987 198.447 318.488 198.447C317.989 198.447 317.585 198.851 317.585 199.349V201.036C317.585 201.535 317.989 201.939 318.488 201.939" fill="#311643"/>
<path fill-rule="evenodd" clip-rule="evenodd" d="M328.589 212.476C330.2 212.476 331.297 211.87 331.962 211.318C332.8 210.622 333.149 209.863 333.163 209.83C333.256 209.622 333.164 209.377 332.955 209.284C332.748 209.19 332.503 209.282 332.409 209.49C332.362 209.592 331.218 211.992 327.893 211.607C327.667 211.581 327.461 211.744 327.435 211.97C327.408 212.198 327.571 212.403 327.798 212.429C328.074 212.461 328.338 212.476 328.589 212.476" fill="#311643"/>
<path fill-rule="evenodd" clip-rule="evenodd" d="M336.756 204.959C336.756 207.424 338.755 209.423 341.219 209.423C343.685 209.423 345.683 207.424 345.683 204.959C345.683 202.494 343.685 200.495 341.219 200.495C338.755 200.495 336.756 202.494 336.756 204.959" fill="#F49795"/>
<path fill-rule="evenodd" clip-rule="evenodd" d="M311.019 201.253C311.585 204.251 312.533 206.983 313.732 209.417C316.092 209.3 317.97 207.349 317.97 204.959C317.97 202.493 315.972 200.495 313.507 200.495C312.586 200.495 311.73 200.774 311.019 201.253" fill="#F49795"/>
<path fill-rule="evenodd" clip-rule="evenodd" d="M312.99 197.709C312.99 194.678 315.456 192.211 318.488 192.211C321.519 192.211 323.986 194.678 323.986 197.709C323.986 200.74 321.519 203.207 318.488 203.207C315.456 203.207 312.99 200.74 312.99 197.709M329.728 197.709C329.728 194.678 332.195 192.211 335.226 192.211C338.258 192.211 340.724 194.678 340.724 197.709C340.724 200.74 338.258 203.207 335.226 203.207C332.195 203.207 329.728 200.74 329.728 197.709M312.162 197.709C312.162 201.196 315 204.034 318.488 204.034C321.896 204.034 324.681 201.325 324.807 197.948C326.699 196.877 328.383 197.646 328.907 197.942C329.03 201.322 331.817 204.034 335.226 204.034C338.714 204.034 341.552 201.196 341.552 197.709C341.552 194.221 338.714 191.384 335.226 191.384C331.968 191.384 329.278 193.859 328.938 197.029C328.112 196.649 326.549 196.198 324.777 197.032C324.438 193.861 321.747 191.384 318.488 191.384C315 191.384 312.162 194.221 312.162 197.709" fill="white"/>
<path fill-rule="evenodd" clip-rule="evenodd" d="M332.367 229.496V221.949C336.067 220.932 340.279 218.441 343.445 216.066L332.367 229.496Z" fill="#F9AFAB"/>
<path fill-rule="evenodd" clip-rule="evenodd" d="M285.879 358.506L289.296 358.038L292.53 331.216H289.171L285.879 358.506Z" fill="#EBEDF4"/>
<path fill-rule="evenodd" clip-rule="evenodd" d="M294.952 256.007L291.985 261.695H307.799L294.952 256.007Z" fill="#FCBEB7"/>
<path fill-rule="evenodd" clip-rule="evenodd" d="M325.242 405.026V417.273C325.242 418.701 324.084 419.858 322.657 419.858H287.923C287.592 419.858 287.324 419.59 287.324 419.26V417.003C287.324 415.914 287.959 414.924 288.95 414.471L309.034 405.026H325.242Z" fill="#2F3D6C"/>
<path fill-rule="evenodd" clip-rule="evenodd" d="M325.243 398.06L325.235 405.027H309.035L307.914 398.06H325.243Z" fill="#FCBEB7"/>
<path fill-rule="evenodd" clip-rule="evenodd" d="M332.396 222.378L310.403 232.313C307.379 233.679 304.918 236.046 303.436 239.015L294.953 256.007L307.8 261.695L306.735 299.255H370.755L367.96 264.176L379.538 264.251V245.059C379.538 239.113 375.966 233.751 370.48 231.461L348.729 222.378C348.729 222.378 339.227 228.614 332.396 222.378" fill="#89AEFF"/>
<path fill-rule="evenodd" clip-rule="evenodd" d="M327.133 224.663C330.605 227.572 334.945 229.156 339.529 229.156C344.353 229.156 349.111 227.23 352.667 224.022L351.967 223.73C348.563 226.716 344.097 228.494 339.529 228.494C335.214 228.494 331.124 227.041 327.815 224.366L327.133 224.663Z" fill="white"/>
<path fill-rule="evenodd" clip-rule="evenodd" d="M291.156 405.026V417.273C291.156 418.701 289.998 419.858 288.571 419.858H253.837C253.506 419.858 253.238 419.59 253.238 419.26V417.003C253.238 415.914 253.873 414.924 254.864 414.471L274.948 405.026H291.156Z" fill="#2F3D6C"/>
<path fill-rule="evenodd" clip-rule="evenodd" d="M291.156 398.06L291.148 405.027H274.948L273.827 398.06H291.156Z" fill="#FCBEB7"/>
<path fill-rule="evenodd" clip-rule="evenodd" d="M336.671 299.255V299.909C336.684 316.361 323.351 329.704 306.9 329.704H293.069L291.156 398.06H273.827L261.05 316.558C259.625 307.469 266.652 299.255 275.851 299.255H336.671Z" fill="#6277D7"/>
<path fill-rule="evenodd" clip-rule="evenodd" d="M260.867 314.272C262.359 316.455 264.87 317.887 267.715 317.887C272.296 317.887 276.01 314.174 276.01 309.593C276.01 305.195 272.585 301.595 268.257 301.317C263.786 303.953 260.843 308.832 260.867 314.272" fill="#4A5EA3"/>
<path fill-rule="evenodd" clip-rule="evenodd" d="M294.955 313.953L293.07 329.704H304.417L294.955 313.953Z" fill="#4A5EA3"/>
<path fill-rule="evenodd" clip-rule="evenodd" d="M370.758 299.255V299.909C370.771 316.361 357.438 329.704 340.987 329.704H327.156L325.243 398.06H307.914L295.137 316.558C293.713 307.469 300.739 299.255 309.938 299.255H370.758Z" fill="#6277D7"/>
<path fill-rule="evenodd" clip-rule="evenodd" d="M379.538 264.251L378.922 285.523C378.755 291.273 374.047 295.848 368.295 295.848H331.264L328.778 287.187L361.442 281.804L361.673 264.136L379.538 264.251Z" fill="#FCBEB7"/>
<path fill-rule="evenodd" clip-rule="evenodd" d="M368.557 291.424C368.557 293.106 369.312 294.612 370.504 295.617C374.331 294.809 377.408 291.94 378.498 288.209C377.501 286.83 375.879 285.933 374.047 285.933C371.015 285.933 368.557 288.391 368.557 291.424" fill="#F9AFAB"/>
<path fill-rule="evenodd" clip-rule="evenodd" d="M361.673 264.136L356.658 282.592L361.442 281.804L361.673 264.136Z" fill="#4A62D3"/>
<path fill-rule="evenodd" clip-rule="evenodd" d="M333.341 286.435L339.179 295.848H331.264L328.778 287.187L333.341 286.435Z" fill="#F9AFAB"/>
<path fill-rule="evenodd" clip-rule="evenodd" d="M269.708 261.695H317.994C320.046 261.695 321.85 263.053 322.416 265.026L331.264 295.847H350.844C351.785 295.847 352.547 296.61 352.547 297.551C352.547 298.492 351.785 299.255 350.844 299.255H332.242H326.328H274.383L265.286 267.565C264.442 264.625 266.649 261.695 269.708 261.695" fill="#4A5EA3"/>
<path fill-rule="evenodd" clip-rule="evenodd" d="M294.955 313.953C296.416 316.314 299.03 317.888 302.012 317.888C306.593 317.888 310.306 314.175 310.306 309.594C310.306 305.13 306.78 301.489 302.36 301.307C297.968 303.889 295.045 308.635 294.955 313.953" fill="#4A5EA3"/>
<path fill-rule="evenodd" clip-rule="evenodd" d="M294.442 281.852C294.568 283.291 295.47 284.387 296.456 284.301C297.442 284.214 298.139 282.977 298.012 281.538C297.886 280.098 296.984 279.002 295.998 279.088C295.012 279.175 294.316 280.413 294.442 281.852" fill="#89AEFF"/>
<path fill-rule="evenodd" clip-rule="evenodd" d="M369.825 239.272C369.825 241.954 371.999 244.128 374.681 244.128C376.616 244.128 378.285 242.998 379.066 241.361C378.38 238.71 376.967 236.309 375.005 234.426C374.898 234.418 374.79 234.416 374.681 234.416C371.999 234.416 369.825 236.589 369.825 239.272" fill="#4A62D3"/>
<path fill-rule="evenodd" clip-rule="evenodd" d="M303.736 238.446C304.51 238.967 305.442 239.271 306.445 239.271C309.127 239.271 311.301 237.096 311.301 234.415C311.301 233.6 311.101 232.832 310.746 232.158L310.403 232.312C307.574 233.59 305.239 235.743 303.736 238.446" fill="#4A62D3"/>
<path fill-rule="evenodd" clip-rule="evenodd" d="M29.855 419.859H77.115V372.6H29.855V419.859Z" fill="#D2DCFF"/>
<path fill-rule="evenodd" clip-rule="evenodd" d="M3.82202 419.859H29.855V372.6H3.82202V419.859Z" fill="#AEC3FF"/>
<path fill-rule="evenodd" clip-rule="evenodd" d="M3.82202 382.064H29.855V380.68H3.82202V382.064Z" fill="#86A2E2"/>
<path fill-rule="evenodd" clip-rule="evenodd" d="M29.855 382.064H77.115V380.68H29.855V382.064Z" fill="#AEC3FF"/>
<path fill-rule="evenodd" clip-rule="evenodd" d="M62.18 388.83H44.79C44.46 388.83 44.193 388.562 44.193 388.232V388.197C44.193 387.867 44.46 387.6 44.79 387.6H62.18C62.51 387.6 62.778 387.867 62.778 388.197V388.232C62.778 388.562 62.51 388.83 62.18 388.83" fill="#86A2E2"/>
<path fill-rule="evenodd" clip-rule="evenodd" d="M476.019 371.177L451.872 359.462L441.721 380.388L465.868 392.103L476.019 371.177Z" fill="#4A5EA3"/>
<path fill-rule="evenodd" clip-rule="evenodd" d="M450.51 362.566L423.882 365.922L426.791 388.998L453.419 385.641L450.51 362.566Z" fill="#4A5EA3"/>
<path fill-rule="evenodd" clip-rule="evenodd" d="M437.25 419.859H484.509V372.6H437.25V419.859Z" fill="#D2DCFF"/>
<path fill-rule="evenodd" clip-rule="evenodd" d="M411.216 419.859H437.249V372.6H411.216V419.859Z" fill="#AEC3FF"/>
<path fill-rule="evenodd" clip-rule="evenodd" d="M411.217 372.6L397.694 387.085H427.066L437.25 372.6H411.217Z" fill="#86A2E2"/>
<path fill-rule="evenodd" clip-rule="evenodd" d="M484.509 372.6L494.161 387.273H446.971L437.25 372.53L484.509 372.6Z" fill="#AEC3FF"/>
<path fill-rule="evenodd" clip-rule="evenodd" d="M447.275 362.974L445.374 372.545L450.51 362.567L447.275 362.974Z" fill="#2F3D6C"/>
<path fill-rule="evenodd" clip-rule="evenodd" d="M230.602 91.1572H128.506C125.02 91.1572 122.194 88.3322 122.194 84.8452V6.41722C122.194 2.93022 125.02 0.105225 128.506 0.105225H230.602C234.088 0.105225 236.914 2.93022 236.914 6.41722V84.8452C236.914 88.3322 234.088 91.1572 230.602 91.1572" fill="#D2DCFF"/>
<path fill-rule="evenodd" clip-rule="evenodd" d="M230.602 116.938H128.506C125.02 116.938 122.194 114.112 122.194 110.626V75.2424H236.914V110.626C236.914 114.112 234.088 116.938 230.602 116.938" fill="#6277D7"/>
<path fill-rule="evenodd" clip-rule="evenodd" d="M198.737 91.1571H141.407C140.465 91.1571 139.7 90.3931 139.7 89.4511C139.7 88.5081 140.465 87.7441 141.407 87.7441H198.737C199.68 87.7441 200.444 88.5081 200.444 89.4511C200.444 90.3931 199.68 91.1571 198.737 91.1571" fill="#D2DCFF"/>
<path fill-rule="evenodd" clip-rule="evenodd" d="M171.696 100.467H141.408C140.465 100.467 139.701 99.7027 139.701 98.7597C139.701 97.8177 140.465 97.0537 141.408 97.0537H171.696C172.638 97.0537 173.403 97.8177 173.403 98.7597C173.403 99.7027 172.638 100.467 171.696 100.467" fill="#D2DCFF"/>
<path fill-rule="evenodd" clip-rule="evenodd" d="M215.588 38.9531H185.3C184.357 38.9531 183.593 38.1891 183.593 37.2461C183.593 36.3041 184.357 35.5391 185.3 35.5391H215.588C216.53 35.5391 217.295 36.3041 217.295 37.2461C217.295 38.1891 216.53 38.9531 215.588 38.9531" fill="#6277D7"/>
<path fill-rule="evenodd" clip-rule="evenodd" d="M200.585 48.2626H185.3C184.357 48.2626 183.593 47.4976 183.593 46.5556C183.593 45.6136 184.357 44.8486 185.3 44.8486H200.585C201.528 44.8486 202.292 45.6136 202.292 46.5556C202.292 47.4976 201.528 48.2626 200.585 48.2626" fill="#6277D7"/>
<path fill-rule="evenodd" clip-rule="evenodd" d="M156.307 57.1133C156.307 55.9433 157.255 54.9943 158.425 54.9943C150.18 54.9943 143.473 48.2873 143.473 40.0423C143.473 31.7973 150.18 25.0893 158.425 25.0893C166.671 25.0893 173.378 31.7973 173.378 40.0423C173.378 38.8713 174.327 37.9233 175.497 37.9233C176.667 37.9233 177.616 38.8713 177.616 40.0423C177.616 29.4603 169.007 20.8513 158.425 20.8513C147.844 20.8513 139.235 29.4603 139.235 40.0423C139.235 50.6233 147.844 59.2313 158.425 59.2313C157.255 59.2313 156.307 58.2833 156.307 57.1133" fill="#89AEFF"/>
<path fill-rule="evenodd" clip-rule="evenodd" d="M175.497 37.9229C174.327 37.9229 173.378 38.8709 173.378 40.0419C173.378 48.2869 166.671 54.9939 158.425 54.9939C157.255 54.9939 156.307 55.9439 156.307 57.1129C156.307 58.2829 157.255 59.2319 158.425 59.2319C169.007 59.2319 177.616 50.6229 177.616 40.0419C177.616 38.8709 176.667 37.9229 175.497 37.9229" fill="#6277D7"/>
<path fill-rule="evenodd" clip-rule="evenodd" d="M262.166 74.8213V113.174C262.166 115.253 263.851 116.938 265.93 116.938H326.694C328.773 116.938 330.459 115.253 330.459 113.174V74.8213H262.166Z" fill="#89AEFF"/>
<path fill-rule="evenodd" clip-rule="evenodd" d="M268.858 59.2061H323.767C326.031 59.2061 327.867 62.2051 327.867 65.9031V98.8421C327.867 102.541 326.031 105.539 323.767 105.539H268.858C266.594 105.539 264.758 102.541 264.758 98.8421V65.9031C264.758 62.2051 266.594 59.2061 268.858 59.2061" fill="#D2DCFF"/>
<path fill-rule="evenodd" clip-rule="evenodd" d="M326.695 116.939H265.931C263.852 116.939 262.167 115.253 262.167 113.174V74.8215L296.313 99.8115L330.46 74.8215V113.174C330.46 115.253 328.774 116.939 326.695 116.939" fill="#6277D7"/>
<path fill-rule="evenodd" clip-rule="evenodd" d="M311.324 73.497H281.301C280.359 73.497 279.595 72.732 279.595 71.79C279.595 70.848 280.359 70.083 281.301 70.083H311.324C312.267 70.083 313.031 70.848 313.031 71.79C313.031 72.732 312.267 73.497 311.324 73.497" fill="#89AEFF"/>
<path fill-rule="evenodd" clip-rule="evenodd" d="M303.882 81.0995H288.744C287.801 81.0995 287.037 80.3345 287.037 79.3925C287.037 78.4505 287.801 77.6855 288.744 77.6855H303.882C304.824 77.6855 305.589 78.4505 305.589 79.3925C305.589 80.3345 304.824 81.0995 303.882 81.0995" fill="#89AEFF"/>
<path fill-rule="evenodd" clip-rule="evenodd" d="M56.7704 147.434C55.7774 147.434 54.6934 147.251 53.5624 146.932V154.448H37.3354V135.113C37.2244 134.803 37.1164 134.471 37.0094 134.122C29.8154 133.435 30.1144 121.545 34.3884 121.545C34.4474 121.545 34.5034 121.551 34.5594 121.559V121.558C52.5294 127.302 64.6134 117.89 68.5674 111.35C68.5674 115.913 73.6194 120.364 75.4164 120.77C75.1504 137.08 63.4824 147.434 56.7704 147.434M78.8244 116.025C78.8244 105.282 69.3494 96.5776 55.1414 96.5776C43.3334 96.5776 39.2754 103.093 39.2754 103.093C39.2754 103.093 28.1144 105.505 28.1144 119.374V154.448H46.4544H47.3884H60.9324H75.6554V125.563C76.8184 124.135 78.8244 120.958 78.8244 116.025" fill="#311643"/>
<path fill-rule="evenodd" clip-rule="evenodd" d="M53.5624 148.699V146.931C54.6934 147.251 55.7774 147.433 56.7704 147.433C63.4824 147.433 75.1504 137.079 75.4164 120.769C73.6194 120.363 68.5674 115.913 68.5674 111.349C64.6134 117.889 52.5294 127.302 34.5594 121.557V121.558C34.5034 121.551 34.4474 121.545 34.3884 121.545C30.1144 121.545 29.8154 133.434 37.0094 134.122C37.1164 134.47 37.2244 134.803 37.3354 135.112V148.119L24.6264 154.109V169.795H66.8594V152.695L53.5624 148.699Z" fill="#FCBEB7"/>
<path fill-rule="evenodd" clip-rule="evenodd" d="M66.8592 169.795V152.695L53.5622 148.699V146.932C49.8022 145.871 45.5282 143.301 42.3902 140.902L66.8592 169.795Z" fill="#F9AFAB"/>
<path fill-rule="evenodd" clip-rule="evenodd" d="M49.3221 130.112C49.3221 132.557 47.3401 134.539 44.8951 134.539C42.4501 134.539 40.4691 132.557 40.4691 130.112C40.4691 127.668 42.4501 125.686 44.8951 125.686C47.3401 125.686 49.3221 127.668 49.3221 130.112" fill="#F49795"/>
<path fill-rule="evenodd" clip-rule="evenodd" d="M74.8461 126.438C74.2851 129.411 73.3441 132.122 72.1561 134.534C69.8151 134.418 67.9521 132.483 67.9521 130.113C67.9521 127.668 69.9341 125.687 72.3791 125.687C73.2921 125.687 74.1411 125.963 74.8461 126.438" fill="#F49795"/>
<path fill-rule="evenodd" clip-rule="evenodd" d="M67.3583 128.375C64.3523 128.375 61.9053 125.929 61.9053 122.923C61.9053 119.916 64.3523 117.47 67.3583 117.47C70.3643 117.47 72.8113 119.916 72.8113 122.923C72.8113 125.929 70.3643 128.375 67.3583 128.375M50.7583 128.375C47.7523 128.375 45.3063 125.929 45.3063 122.923C45.3063 119.916 47.7523 117.47 50.7583 117.47C53.7653 117.47 56.2113 119.916 56.2113 122.923C56.2113 125.929 53.7653 128.375 50.7583 128.375M67.3583 116.649C64.1263 116.649 61.4583 119.106 61.1213 122.251C59.3643 121.424 57.8133 121.872 56.9953 122.248C56.6573 119.105 53.9893 116.649 50.7583 116.649C47.2993 116.649 44.4853 119.464 44.4853 122.923C44.4853 126.382 47.2993 129.195 50.7583 129.195C54.1403 129.195 56.9033 126.506 57.0253 123.153C57.5463 122.853 59.2023 122.089 61.0913 123.16C61.2163 126.509 63.9793 129.195 67.3583 129.195C70.8173 129.195 73.6313 126.382 73.6313 122.923C73.6313 119.464 70.8173 116.649 67.3583 116.649" fill="white"/>
<path fill-rule="evenodd" clip-rule="evenodd" d="M67.3627 124.654C66.8677 124.654 66.4667 124.253 66.4667 123.758V122.086C66.4667 121.591 66.8677 121.191 67.3627 121.191C67.8567 121.191 68.2577 121.591 68.2577 122.086V123.758C68.2577 124.253 67.8567 124.654 67.3627 124.654" fill="#311643"/>
<path fill-rule="evenodd" clip-rule="evenodd" d="M51.0306 124.654C50.5356 124.654 50.1346 124.253 50.1346 123.758V122.086C50.1346 121.591 50.5356 121.191 51.0306 121.191C51.5256 121.191 51.9266 121.591 51.9266 122.086V123.758C51.9266 124.253 51.5256 124.654 51.0306 124.654" fill="#311643"/>
<path fill-rule="evenodd" clip-rule="evenodd" d="M57.4217 137.567C55.8237 137.567 54.7357 136.965 54.0767 136.419C53.2457 135.728 52.9007 134.975 52.8857 134.944C52.7927 134.737 52.8847 134.494 53.0917 134.401C53.2977 134.308 53.5397 134.399 53.6337 134.605C53.6797 134.707 54.8157 137.087 58.1117 136.705C58.3377 136.679 58.5407 136.84 58.5667 137.065C58.5927 137.291 58.4317 137.494 58.2067 137.52C57.9327 137.552 57.6707 137.567 57.4217 137.567" fill="#311643"/>
<path fill-rule="evenodd" clip-rule="evenodd" d="M84.1825 397.982L85.8615 404.961L104.172 410.711L101.539 397.982H84.1825Z" fill="#FCBEB7"/>
<path fill-rule="evenodd" clip-rule="evenodd" d="M22.4881 397.982L22.9881 406.603L21.8461 407.024L21.0941 410.714L39.3881 404.961L39.8451 397.982H22.4881Z" fill="#FCBEB7"/>
<path fill-rule="evenodd" clip-rule="evenodd" d="M118.295 413.422L103.409 407.024L104.172 410.712L85.8613 404.962V410.208C85.8613 412.054 86.8263 413.726 88.3433 414.666L89.9183 419.168C90.0543 419.558 90.4213 419.818 90.8333 419.818C91.3693 419.818 91.8033 419.384 91.8033 418.848V415.919L104.318 419.818H116.979C118.819 419.818 120.312 418.325 120.312 416.485C120.312 415.152 119.519 413.948 118.295 413.422" fill="#2F3D6C"/>
<path fill-rule="evenodd" clip-rule="evenodd" d="M39.4042 410.157L39.3892 404.911L21.0942 410.715L21.8462 407.024L6.98018 413.467C5.75818 413.997 4.96818 415.203 4.97218 416.535C4.97718 418.376 6.47418 419.864 8.31518 419.858L20.9752 419.821L33.9162 415.748L33.9252 418.814C33.9272 419.35 34.3622 419.783 34.8982 419.781C35.3112 419.78 35.6772 419.518 35.8122 419.129L37.5202 414.199C38.6922 413.22 39.4092 411.753 39.4042 410.157" fill="#2F3D6C"/>
<path fill-rule="evenodd" clip-rule="evenodd" d="M25.2567 222.464L18.5027 251.064C16.5517 259.323 15.7837 267.818 16.2207 276.293L22.4877 397.983H39.8447L47.2557 271.693L84.1827 397.983H101.54L70.9787 222.464H25.2567Z" fill="#6277D7"/>
<path fill-rule="evenodd" clip-rule="evenodd" d="M48.223 162.059C51.305 162.059 53.77 159.091 55.432 156.085H37.856C40.536 159.083 44.208 162.059 48.223 162.059" fill="white"/>
<path fill-rule="evenodd" clip-rule="evenodd" d="M81.1083 162.289C78.3993 158.071 74.2793 154.955 69.4843 153.494L57.8363 149.947C57.8363 150.437 56.9833 153.277 55.4323 156.085C53.7703 159.091 51.3053 162.059 48.2233 162.059C44.2083 162.059 40.5363 159.083 37.8563 156.085C35.1363 153.043 33.4373 149.978 33.4373 149.978L21.3363 155.585C16.3823 157.88 12.7363 162.295 11.4193 167.593L2.49127 203.494L18.9083 203.499L22.9373 189.559L25.2563 222.464H70.9783L75.1323 187.44L86.0243 197.236L95.0583 184.003L81.1083 162.289Z" fill="#FE9ECC"/>
<path fill-rule="evenodd" clip-rule="evenodd" d="M147.005 148.699L146.309 148.583L146.2 148.157C145.996 147.355 145.299 146.775 144.473 146.72L134.713 146.06L127.923 143.299L131.713 138.568C132.341 137.784 132.254 136.647 131.512 135.97L123.515 142.132C122.731 142.736 122.08 143.496 121.603 144.364L119.405 148.369L119.395 148.356L86.0242 197.236L90.6092 201.426C94.3992 204.888 100.45 203.762 102.742 199.169L124.422 155.708L132.323 156.459C134.1 156.629 135.893 156.45 137.601 155.933L141.784 154.669C142.494 154.454 142.864 153.674 142.582 152.988L145.561 152.415C146.117 152.308 146.538 151.849 146.597 151.286L146.648 150.804H146.831C147.416 150.804 147.89 150.33 147.89 149.744C147.89 149.226 147.516 148.784 147.005 148.699" fill="#FCBEB7"/>
<path fill-rule="evenodd" clip-rule="evenodd" d="M95.0585 184.003L82.3715 193.951L86.0235 197.236L95.0585 184.003Z" fill="#FF78BA"/>
<path fill-rule="evenodd" clip-rule="evenodd" d="M48.6742 166.335C46.1322 166.335 43.5462 165.562 40.9862 164.036C38.9542 162.825 36.9342 161.14 34.9822 159.026C31.6692 155.439 29.6562 151.775 29.6362 151.739L30.3102 151.428C30.3292 151.463 32.2872 155.012 35.5412 158.531C37.4442 160.589 39.4062 162.227 41.3752 163.399C43.8162 164.852 46.2712 165.589 48.6742 165.589C50.9452 165.589 52.9902 164.83 54.7532 163.333C56.1792 162.123 57.4292 160.429 58.4682 158.298C60.2502 154.644 60.7982 150.889 60.8032 150.852L61.5272 151.071C61.5052 151.227 60.9722 154.865 59.1382 158.625C58.0542 160.849 56.7412 162.624 55.2362 163.902C53.3352 165.517 51.1272 166.335 48.6742 166.335" fill="white"/>
<path fill-rule="evenodd" clip-rule="evenodd" d="M84.2284 311.266C84.2284 315.854 80.5084 319.574 75.9204 319.574C71.3314 319.574 67.6114 315.854 67.6114 311.266C67.6114 306.677 71.3314 302.957 75.9204 302.957C80.5084 302.957 84.2284 306.677 84.2284 311.266" fill="#4A5EA3"/>
<path fill-rule="evenodd" clip-rule="evenodd" d="M40.7005 311.266C40.7005 315.854 36.9805 319.574 32.3925 319.574C27.8035 319.574 24.0835 315.854 24.0835 311.266C24.0835 306.677 27.8035 302.957 32.3925 302.957C36.9805 302.957 40.7005 306.677 40.7005 311.266" fill="#4A5EA3"/>
<path fill-rule="evenodd" clip-rule="evenodd" d="M79.9828 160.701C79.1458 161.254 78.1428 161.574 77.0648 161.574C74.1348 161.574 71.7588 159.199 71.7588 156.267C71.7588 155.637 71.8688 155.032 72.0708 154.472C75.1668 155.878 77.8828 158.014 79.9828 160.701" fill="#FF78BA"/>
<path fill-rule="evenodd" clip-rule="evenodd" d="M21.4081 159.278C21.4081 162.209 19.0331 164.585 16.1011 164.585C14.9251 164.585 13.8371 164.202 12.9571 163.552C14.6121 160.407 17.1721 157.797 20.3401 156.085C21.0111 156.973 21.4081 158.08 21.4081 159.278" fill="#FF78BA"/>
<path fill-rule="evenodd" clip-rule="evenodd" d="M38.1068 232.445L76.2158 231.006C76.9008 230.98 77.4358 230.403 77.4098 229.717L75.3708 175.738C75.3448 175.052 74.7688 174.517 74.0828 174.543L35.9738 175.982C35.2888 176.008 34.7538 176.586 34.7798 177.271L36.8178 231.251C36.8438 231.936 37.4208 232.471 38.1068 232.445" fill="#4A5EA3"/>
<path fill-rule="evenodd" clip-rule="evenodd" d="M37.9867 229.535L75.9027 233.63C76.5847 233.704 77.1967 233.211 77.2707 232.528L83.0717 178.822C83.1447 178.14 82.6517 177.527 81.9697 177.454L44.0537 173.358C43.3717 173.285 42.7587 173.778 42.6857 174.461L36.8847 228.167C36.8117 228.848 37.3047 229.462 37.9867 229.535" fill="#4A5EA3"/>
<path fill-rule="evenodd" clip-rule="evenodd" d="M83.0946 208.072C83.0646 207.349 82.7436 206.67 82.2046 206.188L81.4926 205.551L81.4596 205.214C81.3336 203.942 80.2956 202.955 79.0186 202.892L74.4106 202.667L76.8386 198.918C77.0016 198.667 77.0526 198.358 76.9776 198.068C76.7966 197.364 75.9826 197.041 75.3676 197.428L62.2446 205.708L18.9076 203.499L2.4906 203.494L0.511601 210.492C-1.0324 215.957 3.4266 221.256 9.0756 220.668L62.2446 215.13L77.3636 217.454L78.0366 217.271C79.1956 216.958 80.0046 215.912 80.0156 214.711L80.0246 213.777L80.0506 213.765C81.0416 213.322 81.6666 212.324 81.6336 211.239L81.6166 210.689L82.1726 210.208C82.7896 209.674 83.1286 208.887 83.0946 208.072" fill="#FCBEB7"/>
<path fill-rule="evenodd" clip-rule="evenodd" d="M10.4217 216.022C10.4217 217.999 9.37871 219.733 7.81271 220.702C3.68671 220.496 0.454712 217.154 0.217712 213.17C1.18171 211.583 2.92771 210.522 4.92171 210.522C7.95971 210.522 10.4217 212.984 10.4217 216.022" fill="#F9AFAB"/>
<path fill-rule="evenodd" clip-rule="evenodd" d="M101.698 200.75C99.0441 203.863 94.2641 204.413 90.9591 201.726C91.2561 198.969 93.5911 196.822 96.4261 196.822C98.9181 196.822 101.022 198.479 101.698 200.75" fill="#F9AFAB"/>
<path fill-rule="evenodd" clip-rule="evenodd" d="M40.0653 232.372C40.0653 232.372 73.9193 239.356 73.9143 239.322C73.9083 239.289 72.8653 233.303 72.8653 233.303L57.9833 231.695L40.0653 232.372Z" fill="#4A5EA3"/>
<path fill-rule="evenodd" clip-rule="evenodd" d="M39.3236 175.856L39.4366 204.545L42.5486 175.734L39.3236 175.856Z" fill="#2F3D6C"/>
</svg>
