<svg width="494" height="381" viewBox="0 0 494 381" fill="none" xmlns="http://www.w3.org/2000/svg">
<path fill-rule="evenodd" clip-rule="evenodd" d="M264.082 330.8L239.935 319.085L229.783 340.011L253.931 351.726L264.082 330.8Z" fill="#4A5EA3"/>
<path fill-rule="evenodd" clip-rule="evenodd" d="M238.573 322.189L211.945 325.545L214.854 348.621L241.482 345.264L238.573 322.189Z" fill="#4A5EA3"/>
<path fill-rule="evenodd" clip-rule="evenodd" d="M225.312 379.482H272.572V332.223H225.312V379.482Z" fill="#D2DCFF"/>
<path fill-rule="evenodd" clip-rule="evenodd" d="M199.279 379.482H225.312V332.223H199.279V379.482Z" fill="#AEC3FF"/>
<path fill-rule="evenodd" clip-rule="evenodd" d="M199.279 332.223L185.756 346.708H215.129L225.312 332.223H199.279Z" fill="#86A2E2"/>
<path fill-rule="evenodd" clip-rule="evenodd" d="M272.572 332.223L282.223 346.896H235.033L225.312 332.153L272.572 332.223Z" fill="#AEC3FF"/>
<path fill-rule="evenodd" clip-rule="evenodd" d="M235.338 322.597L233.438 332.168L238.573 322.19L235.338 322.597Z" fill="#2F3D6C"/>
<path fill-rule="evenodd" clip-rule="evenodd" d="M487.129 363.408V359.758C487.129 358.63 486.214 357.715 485.086 357.715H400.395C396.122 357.715 392.658 361.179 392.658 365.452V371.675C392.658 375.948 396.122 379.412 400.395 379.412H485.086C486.214 379.412 487.129 378.497 487.129 377.368V373.719C487.129 372.59 486.214 371.675 485.086 371.675H403.507C401.788 371.675 400.395 370.282 400.395 368.563C400.395 366.845 401.788 365.452 403.507 365.452H485.086C486.214 365.452 487.129 364.537 487.129 363.408" fill="#86A2E2"/>
<path fill-rule="evenodd" clip-rule="evenodd" d="M486.308 298.317V294.667C486.308 293.538 485.393 292.624 484.264 292.624H399.574C395.3 292.624 391.836 296.088 391.836 300.36V306.584C391.836 310.857 395.3 314.321 399.574 314.321H484.264C485.393 314.321 486.308 313.406 486.308 312.277V308.627C486.308 307.499 485.393 306.584 484.264 306.584H402.685C400.966 306.584 399.574 305.19 399.574 303.472C399.574 301.754 400.966 300.36 402.685 300.36H484.264C485.393 300.36 486.308 299.445 486.308 298.317" fill="#D2DCFF"/>
<path fill-rule="evenodd" clip-rule="evenodd" d="M481.079 341.711V338.061C481.079 336.933 480.164 336.018 479.036 336.018H406.447C402.174 336.018 398.71 339.482 398.71 343.754V349.978C398.71 354.251 402.174 357.715 406.447 357.715H479.036C480.164 357.715 481.079 356.8 481.079 355.671V352.022C481.079 350.893 480.164 349.978 479.036 349.978H409.558C407.84 349.978 406.447 348.584 406.447 346.866C406.447 345.148 407.84 343.754 409.558 343.754H479.036C480.164 343.754 481.079 342.84 481.079 341.711" fill="#AEC3FF"/>
<path fill-rule="evenodd" clip-rule="evenodd" d="M493.27 277.209V273.559C493.27 272.43 492.355 271.515 491.227 271.515H418.638C414.365 271.515 410.901 274.98 410.901 279.252V285.476C410.901 289.748 414.365 293.212 418.638 293.212H491.227C492.355 293.212 493.27 292.298 493.27 291.169V287.519C493.27 286.391 492.355 285.476 491.227 285.476H421.749C420.031 285.476 418.638 284.082 418.638 282.363C418.638 280.646 420.031 279.252 421.749 279.252H491.227C492.355 279.252 493.27 278.337 493.27 277.209" fill="#AEC3FF"/>
<path fill-rule="evenodd" clip-rule="evenodd" d="M478.387 343.754V349.978H409.558C407.839 349.978 406.447 348.584 406.447 346.866C406.447 345.148 407.839 343.754 409.558 343.754H478.387Z" fill="#EFF1FA"/>
<path fill-rule="evenodd" clip-rule="evenodd" d="M472.309 365.452V371.675H403.479C401.76 371.675 400.368 370.282 400.368 368.563C400.368 366.845 401.76 365.452 403.479 365.452H472.309Z" fill="#EFF1FA"/>
<path fill-rule="evenodd" clip-rule="evenodd" d="M471.487 300.359V306.583H402.657C400.939 306.583 399.546 305.189 399.546 303.471C399.546 301.753 400.939 300.359 402.657 300.359H471.487Z" fill="#EFF1FA"/>
<path fill-rule="evenodd" clip-rule="evenodd" d="M490.58 279.252V285.476H421.75C420.031 285.476 418.639 284.082 418.639 282.363C418.639 280.646 420.031 279.252 421.75 279.252H490.58Z" fill="#EFF1FA"/>
<path fill-rule="evenodd" clip-rule="evenodd" d="M493.27 320.014V316.364C493.27 315.236 492.355 314.321 491.227 314.321H418.638C414.365 314.321 410.901 317.785 410.901 322.057V328.281C410.901 332.554 414.365 336.018 418.638 336.018H491.227C492.355 336.018 493.27 335.103 493.27 333.974V330.325C493.27 329.196 492.355 328.281 491.227 328.281H421.749C420.031 328.281 418.638 326.887 418.638 325.169C418.638 323.451 420.031 322.057 421.749 322.057H491.227C492.355 322.057 493.27 321.142 493.27 320.014" fill="#86A2E2"/>
<path fill-rule="evenodd" clip-rule="evenodd" d="M490.58 322.057V328.281H421.75C420.031 328.281 418.639 326.887 418.639 325.169C418.639 323.451 420.031 322.057 421.75 322.057H490.58Z" fill="#EFF1FA"/>
<path fill-rule="evenodd" clip-rule="evenodd" d="M454.559 260.651H467.029C467.644 260.651 468.121 261.188 468.047 261.799L466.993 270.611C466.931 271.127 466.494 271.514 465.974 271.514H455.615C455.095 271.514 454.658 271.127 454.595 270.611L453.54 261.799C453.467 261.188 453.945 260.651 454.559 260.651" fill="#D2DCFF"/>
<path fill-rule="evenodd" clip-rule="evenodd" d="M465.075 257.056V253.049L462.679 257.604V250.207L460.795 254.865L458.911 250.207V257.604L456.513 253.049V257.056L453.02 251.44L454.559 260.652H460.795H467.029L468.568 251.44L465.075 257.056Z" fill="#6277D7"/>
<path fill-rule="evenodd" clip-rule="evenodd" d="M314.299 243.149H157.999C153.601 243.149 150.036 239.584 150.036 235.186V86.3749C150.036 81.9769 153.601 78.4119 157.999 78.4119H314.299C318.696 78.4119 322.262 81.9769 322.262 86.3749V235.186C322.262 239.584 318.696 243.149 314.299 243.149" fill="#6277D7"/>
<path fill-rule="evenodd" clip-rule="evenodd" d="M248.029 102.257H173.868C172.549 102.257 171.479 101.187 171.479 99.8673V99.8673C171.479 98.5473 172.549 97.4773 173.868 97.4773H248.029C249.349 97.4773 250.42 98.5473 250.42 99.8673V99.8673C250.42 101.187 249.349 102.257 248.029 102.257" fill="#E1E9FF"/>
<path fill-rule="evenodd" clip-rule="evenodd" d="M224.188 114.181H173.868C172.548 114.181 171.479 113.111 171.479 111.791C171.479 110.471 172.548 109.401 173.868 109.401H224.188C225.508 109.401 226.578 110.471 226.578 111.791C226.578 113.111 225.508 114.181 224.188 114.181" fill="#E1E9FF"/>
<path fill-rule="evenodd" clip-rule="evenodd" d="M186.439 133.718H173.186C172.243 133.718 171.479 132.954 171.479 132.011C171.479 131.068 172.243 130.304 173.186 130.304H186.439C187.381 130.304 188.146 131.068 188.146 132.011C188.146 132.954 187.381 133.718 186.439 133.718" fill="#89AEFF"/>
<path fill-rule="evenodd" clip-rule="evenodd" d="M192.207 188.587V231.186C192.207 232.129 191.443 232.893 190.5 232.893H183.603C182.66 232.893 181.896 232.129 181.896 231.186V188.587C181.896 187.644 182.66 186.88 183.603 186.88H190.5C191.443 186.88 192.207 187.644 192.207 188.587" fill="#89AEFF"/>
<path fill-rule="evenodd" clip-rule="evenodd" d="M210.949 171.472V231.186C210.949 232.128 210.185 232.892 209.242 232.892H202.345C201.403 232.892 200.638 232.128 200.638 231.186V171.472C200.638 170.53 201.403 169.765 202.345 169.765H209.242C210.185 169.765 210.949 170.53 210.949 171.472" fill="#89AEFF"/>
<path fill-rule="evenodd" clip-rule="evenodd" d="M233.52 188.587V231.186C233.52 232.129 232.756 232.893 231.813 232.893H224.916C223.974 232.893 223.209 232.129 223.209 231.186V188.587C223.209 187.644 223.974 186.88 224.916 186.88H231.813C232.756 186.88 233.52 187.644 233.52 188.587" fill="#89AEFF"/>
<path fill-rule="evenodd" clip-rule="evenodd" d="M252.263 171.472V231.186C252.263 232.128 251.499 232.892 250.556 232.892H243.659C242.717 232.892 241.952 232.128 241.952 231.186V171.472C241.952 170.53 242.717 169.765 243.659 169.765H250.556C251.499 169.765 252.263 170.53 252.263 171.472" fill="#89AEFF"/>
<path fill-rule="evenodd" clip-rule="evenodd" d="M274.835 201.061V231.186C274.835 232.128 274.07 232.892 273.128 232.892H266.231C265.288 232.892 264.524 232.128 264.524 231.186V201.061C264.524 200.118 265.288 199.354 266.231 199.354H273.128C274.07 199.354 274.835 200.118 274.835 201.061" fill="#89AEFF"/>
<path fill-rule="evenodd" clip-rule="evenodd" d="M293.578 188.587V231.186C293.578 232.129 292.813 232.893 291.871 232.893H284.974C284.031 232.893 283.267 232.129 283.267 231.186V188.587C283.267 187.644 284.031 186.88 284.974 186.88H291.871C292.813 186.88 293.578 187.644 293.578 188.587" fill="#89AEFF"/>
<path fill-rule="evenodd" clip-rule="evenodd" d="M192.206 204.32V231.186C192.206 232.128 191.442 232.892 190.499 232.892H183.602C182.66 232.892 181.895 232.128 181.895 231.186V204.32C181.895 203.377 182.66 202.613 183.602 202.613H190.499C191.442 202.613 192.206 203.377 192.206 204.32" fill="#D2DCFF"/>
<path fill-rule="evenodd" clip-rule="evenodd" d="M210.949 193.058V231.186C210.949 232.128 210.185 232.892 209.242 232.892H202.345C201.403 232.892 200.638 232.128 200.638 231.186V193.058C200.638 192.115 201.403 191.351 202.345 191.351H209.242C210.185 191.351 210.949 192.115 210.949 193.058" fill="#D2DCFF"/>
<path fill-rule="evenodd" clip-rule="evenodd" d="M233.52 204.32V231.186C233.52 232.128 232.756 232.892 231.813 232.892H224.916C223.974 232.892 223.209 232.128 223.209 231.186V204.32C223.209 203.377 223.974 202.613 224.916 202.613H231.813C232.756 202.613 233.52 203.377 233.52 204.32" fill="#D2DCFF"/>
<path fill-rule="evenodd" clip-rule="evenodd" d="M252.263 193.058V231.186C252.263 232.128 251.498 232.892 250.556 232.892H243.659C242.717 232.892 241.952 232.128 241.952 231.186V193.058C241.952 192.115 242.717 191.351 243.659 191.351H250.556C251.498 191.351 252.263 192.115 252.263 193.058" fill="#D2DCFF"/>
<path fill-rule="evenodd" clip-rule="evenodd" d="M274.835 212.529V231.186C274.835 232.128 274.07 232.892 273.128 232.892H266.231C265.288 232.892 264.523 232.128 264.523 231.186V212.529C264.523 211.587 265.288 210.822 266.231 210.822H273.128C274.07 210.822 274.835 211.587 274.835 212.529" fill="#D2DCFF"/>
<path fill-rule="evenodd" clip-rule="evenodd" d="M293.578 204.32V231.186C293.578 232.128 292.813 232.892 291.871 232.892H284.974C284.031 232.892 283.267 232.128 283.267 231.186V204.32C283.267 203.378 284.031 202.613 284.974 202.613H291.871C292.813 202.613 293.578 203.378 293.578 204.32" fill="#D2DCFF"/>
<path fill-rule="evenodd" clip-rule="evenodd" d="M120.103 0.0532227H136.965L142.802 7.08922H179.311C181.779 7.08922 183.781 9.09022 183.781 11.5592L184.439 50.2172C184.439 52.6862 182.438 54.6872 179.969 54.6872H120.103C117.635 54.6872 115.633 52.6862 115.633 50.2172V4.52322C115.633 2.05422 117.635 0.0532227 120.103 0.0532227" fill="#6277D7"/>
<path fill-rule="evenodd" clip-rule="evenodd" d="M125.859 13.6284H173.826C175.804 13.6284 177.407 15.3154 177.407 17.3954V35.9204C177.407 38.0004 175.804 39.6874 173.826 39.6874H125.859C123.881 39.6874 122.277 38.0004 122.277 35.9204V17.3954C122.277 15.3154 123.881 13.6284 125.859 13.6284" fill="#D2DCFF"/>
<path fill-rule="evenodd" clip-rule="evenodd" d="M120.103 20.6538H179.969C182.438 20.6538 184.439 22.8568 184.439 25.5728V49.7678C184.439 52.4848 182.438 54.6878 179.969 54.6878H120.103C117.635 54.6878 115.633 52.4848 115.633 49.7678V25.5728C115.633 22.8568 117.635 20.6538 120.103 20.6538" fill="#89AEFF"/>
<path fill-rule="evenodd" clip-rule="evenodd" d="M48.0195 266.19C48.0195 268.326 46.8555 270.189 45.1275 271.181L44.6195 270.135C43.1985 267.218 43.1775 263.826 44.5385 260.903C46.5855 261.784 48.0195 263.82 48.0195 266.19" fill="#F9AFAB"/>
<path fill-rule="evenodd" clip-rule="evenodd" d="M109.77 214.192L108.06 210.856C108.527 208.111 108.727 205.126 108.57 201.926C108.534 201.203 108.48 200.47 108.408 199.726C104.838 200.042 94.3659 200.461 86.6619 195.573C87.2299 200.11 85.5339 205.138 82.7229 209.377C82.3819 208.558 81.1549 206.028 79.0409 206.028C74.8119 206.028 74.1719 212.786 76.5369 216.005C74.9039 217.218 73.1939 218.133 71.4999 218.643C71.4999 218.643 71.4929 218.635 71.4819 218.624V238.079H87.8829V229.602C90.0869 230.411 92.0449 230.876 93.4269 230.876C97.5549 230.876 103.812 225.338 106.847 215.851H108.756C109.386 215.851 109.895 215.341 109.895 214.712C109.895 214.531 109.853 214.353 109.77 214.192" fill="#FCBEB7"/>
<path fill-rule="evenodd" clip-rule="evenodd" d="M76.537 216.005C74.172 212.786 74.812 206.028 79.041 206.028C81.155 206.028 82.382 208.558 82.723 209.376C85.534 205.137 87.23 200.11 86.662 195.572C94.366 200.46 104.838 200.041 108.408 199.725C108.48 200.469 108.534 201.203 108.57 201.925C108.878 201.632 109.604 200.817 109.655 199.589C109.657 199.589 109.659 199.589 109.659 199.589C109.659 199.554 109.658 199.519 109.658 199.484C109.658 199.474 109.659 199.463 109.659 199.452C109.659 199.446 109.658 199.44 109.658 199.433C109.563 192.429 103.152 180.536 87.505 180.536C70.927 180.536 67.825 191.33 67.825 191.33C67.825 191.33 62.118 194.456 62.118 200.76C62.118 209.043 71.048 218.184 71.482 218.624C71.493 218.635 71.5 218.642 71.5 218.642C73.194 218.133 74.904 217.218 76.537 216.005" fill="#311643"/>
<path fill-rule="evenodd" clip-rule="evenodd" d="M87.8827 238.079V229.601C83.3287 227.93 77.7238 224.785 73.9688 221.211L87.8827 238.079Z" fill="#F9AFAB"/>
<path fill-rule="evenodd" clip-rule="evenodd" d="M95.0395 213.426C95.0395 215.881 93.0485 217.871 90.5935 217.871C88.1385 217.871 86.1475 215.881 86.1475 213.426C86.1475 210.97 88.1385 208.98 90.5935 208.98C93.0485 208.98 95.0395 210.97 95.0395 213.426" fill="#F49795"/>
<path fill-rule="evenodd" clip-rule="evenodd" d="M100.099 220.299C99.2055 220.299 98.5945 219.96 98.2235 219.652C97.7615 219.269 97.5665 218.856 97.5455 218.81C97.4535 218.604 97.5445 218.361 97.7505 218.268C97.9565 218.175 98.1975 218.266 98.2915 218.471C98.3165 218.525 98.8655 219.642 100.439 219.46C100.664 219.434 100.867 219.595 100.893 219.82C100.919 220.044 100.758 220.247 100.534 220.274C100.382 220.291 100.237 220.299 100.099 220.299" fill="#311643"/>
<path fill-rule="evenodd" clip-rule="evenodd" d="M102.606 207.979C102.113 207.979 101.713 207.579 101.713 207.086V205.417C101.713 204.924 102.113 204.524 102.606 204.524C103.1 204.524 103.5 204.924 103.5 205.417V207.086C103.5 207.579 103.1 207.979 102.606 207.979" fill="#311643"/>
<path fill-rule="evenodd" clip-rule="evenodd" d="M108.632 205.842H105.875V200.759C105.875 200.532 105.692 200.349 105.465 200.349C105.239 200.349 105.056 200.532 105.056 200.759V211.745C105.056 211.971 105.239 212.154 105.465 212.154C105.692 212.154 105.875 211.971 105.875 211.745V206.661H108.632C108.858 206.661 109.041 206.478 109.041 206.252C109.041 206.026 108.858 205.842 108.632 205.842" fill="white"/>
<path fill-rule="evenodd" clip-rule="evenodd" d="M135.739 271.613L89.5916 289.588L75.9666 307.724C73.8666 310.519 70.9026 312.486 67.5876 313.361L87.7776 327.262L126.413 306.935L124.822 356.294H142.155L156.64 289.448C159.275 277.297 147.324 267.1 135.739 271.613" fill="#6277D7"/>
<path fill-rule="evenodd" clip-rule="evenodd" d="M124.822 363.262V375.508C124.822 376.936 125.979 378.094 127.407 378.094H162.141C162.472 378.094 162.74 377.825 162.74 377.495V375.239C162.74 374.149 162.105 373.159 161.114 372.706L140.488 363.262H124.822Z" fill="#2F3D6C"/>
<path fill-rule="evenodd" clip-rule="evenodd" d="M124.822 356.295V363.262H140.488L142.154 356.295H124.822Z" fill="#FCBEB7"/>
<path fill-rule="evenodd" clip-rule="evenodd" d="M109.074 316.059L87.7777 327.263L71.8937 316.059H109.074Z" fill="#4A5EA3"/>
<path fill-rule="evenodd" clip-rule="evenodd" d="M156.215 281.189C154.898 282.069 153.315 282.583 151.613 282.583C147.032 282.583 143.319 278.868 143.319 274.288C143.319 273.025 143.601 271.829 144.105 270.758C149.691 271.751 154.404 275.806 156.215 281.189" fill="#4A5EA3"/>
<path fill-rule="evenodd" clip-rule="evenodd" d="M50.2998 250.068L44.7998 260.379C43.1798 263.414 43.1128 267.042 44.6188 270.135L45.0918 271.106L49.3688 253.375C49.6378 252.257 49.9498 251.154 50.2998 250.068" fill="#FCBEB7"/>
<path fill-rule="evenodd" clip-rule="evenodd" d="M67.5878 313.361C67.6958 313.333 67.8038 313.302 67.9108 313.272C71.0948 312.357 73.9358 310.428 75.9668 307.724L89.5908 289.588L88.5218 252.716L102.255 255.707L107.701 238.522L71.4908 224.239C61.3778 229.878 53.8278 239.129 50.2998 250.068C49.9498 251.154 49.6378 252.257 49.3688 253.375L45.0918 271.106L34.6018 314.595L64.0398 313.867C65.2508 313.837 66.4408 313.664 67.5878 313.361" fill="#89AEFF"/>
<path fill-rule="evenodd" clip-rule="evenodd" d="M88.7075 259.139L70.7305 247.824L88.5215 252.723L88.7075 259.139Z" fill="#4A62D3"/>
<path fill-rule="evenodd" clip-rule="evenodd" d="M39.9701 362.012L33.5082 355.706C32.2472 354.476 30.2842 354.327 28.8521 355.354L1.15615 375.21C0.80015 375.465 0.71815 375.96 0.97315 376.317L2.19015 378.013C2.83315 378.91 3.87615 379.433 4.97915 379.411L16.1012 379.197L39.9701 362.012Z" fill="#2F3D6C"/>
<path fill-rule="evenodd" clip-rule="evenodd" d="M39.9702 379.196H16.1012L39.9702 362.011V379.196Z" fill="#FCBEB7"/>
<path fill-rule="evenodd" clip-rule="evenodd" d="M118.694 348.8L67.9113 313.273C67.8033 313.303 67.6963 313.333 67.5883 313.362C66.4403 313.664 65.2503 313.837 64.0403 313.867L34.6023 314.596C34.6023 327.251 42.2023 338.668 53.8783 343.551L83.7753 356.053L39.9703 362.012V379.196H109.117C125.453 379.196 132.08 358.165 118.694 348.8" fill="#6277D7"/>
<path fill-rule="evenodd" clip-rule="evenodd" d="M121.228 374.081C118.883 372.615 117.323 370.012 117.323 367.042C117.323 362.511 120.957 358.828 125.469 358.749C126.668 364.188 125.021 370.038 121.228 374.081" fill="#4A5EA3"/>
<path fill-rule="evenodd" clip-rule="evenodd" d="M181.488 201.094L171.054 197.628C170.435 197.422 169.759 197.479 169.184 197.786L162.732 201.224L161.271 201.542C160.727 201.661 160.277 202.042 160.07 202.559L157.53 208.913L114.268 240.879L107.701 238.522L102.255 255.707L114.95 258.329C117.899 258.939 120.956 258.018 123.078 255.881L163.691 214.99L171.148 210.606C171.835 210.201 172.269 209.475 172.3 208.678L172.329 207.887L172.813 207.421C173.321 206.931 173.581 206.237 173.519 205.533L173.461 204.876C174.004 204.346 174.255 203.586 174.136 202.836L174.031 202.176L181.065 202.999C181.506 203.051 181.926 202.8 182.09 202.387C182.299 201.863 182.023 201.272 181.488 201.094" fill="#FCBEB7"/>
<path fill-rule="evenodd" clip-rule="evenodd" d="M123.805 255.148L123.077 255.88C120.955 258.017 117.898 258.938 114.95 258.329L114.354 258.206V258.205C114.698 255.502 117.006 253.413 119.801 253.413C121.381 253.413 122.805 254.08 123.805 255.148" fill="#F9AFAB"/>
<path fill-rule="evenodd" clip-rule="evenodd" d="M341.566 357.536L339.887 364.515L321.576 370.265L324.21 357.536H341.566Z" fill="#FCBEB7"/>
<path fill-rule="evenodd" clip-rule="evenodd" d="M403.26 357.536L402.761 366.156L403.902 366.577L404.654 370.268L386.361 364.515L385.903 357.536H403.26Z" fill="#FCBEB7"/>
<path fill-rule="evenodd" clip-rule="evenodd" d="M307.453 372.976L322.339 366.577L321.576 370.266L339.888 364.515V369.762C339.888 371.608 338.923 373.28 337.405 374.22L335.831 378.722C335.694 379.111 335.327 379.372 334.915 379.372C334.38 379.372 333.945 378.937 333.945 378.402V375.473L321.43 379.372H308.769C306.929 379.372 305.436 377.879 305.436 376.039C305.436 374.706 306.229 373.502 307.453 372.976" fill="#2F3D6C"/>
<path fill-rule="evenodd" clip-rule="evenodd" d="M386.344 369.711L386.36 364.464L404.654 370.269L403.902 366.577L418.768 373.021C419.99 373.55 420.78 374.757 420.776 376.089C420.771 377.93 419.274 379.417 417.433 379.412L404.773 379.375L391.831 375.302L391.823 378.368C391.821 378.903 391.385 379.337 390.85 379.335C390.438 379.334 390.071 379.072 389.936 378.683L388.228 373.753C387.056 372.774 386.339 371.306 386.344 369.711" fill="#2F3D6C"/>
<path fill-rule="evenodd" clip-rule="evenodd" d="M350.327 80.3226C352.124 79.9166 357.175 75.4666 357.175 70.9026C361.13 77.4426 373.214 86.8556 391.184 81.1106C391.184 81.1116 391.184 81.1116 391.183 81.1126C391.239 81.1036 391.296 81.0986 391.354 81.0986C395.629 81.0986 395.928 92.9876 388.733 93.6756C388.627 94.0236 388.518 94.3556 388.407 94.6656V114H372.181V106.485C371.05 106.804 369.965 106.988 368.973 106.988C362.261 106.988 350.593 96.6326 350.327 80.3226M350.088 85.1156V114H364.81H378.354H379.289H397.629V78.9276C397.629 65.0576 386.468 62.6466 386.468 62.6466C386.468 62.6466 382.41 56.1306 370.601 56.1306C356.393 56.1306 346.919 64.8346 346.919 75.5776C346.919 80.5116 348.925 83.6886 350.088 85.1156" fill="#311643"/>
<path fill-rule="evenodd" clip-rule="evenodd" d="M372.18 106.485C371.049 106.804 369.964 106.987 368.972 106.987C362.26 106.987 350.592 96.6329 350.326 80.3229C352.123 79.9169 357.174 75.4659 357.174 70.9019C361.129 77.4429 373.213 86.8559 391.184 81.1109C391.184 81.1109 391.184 81.1119 391.183 81.1119C391.239 81.1039 391.295 81.0989 391.354 81.0989C395.628 81.0989 395.927 92.9879 388.733 93.6749C388.626 94.0239 388.518 94.3559 388.407 94.6659V107.672L401.117 113.611V129.349H358.883V112.249L372.18 108.197V106.485Z" fill="#FCBEB7"/>
<path fill-rule="evenodd" clip-rule="evenodd" d="M358.883 129.349V112.249L372.18 108.198V106.485C375.94 105.424 380.214 102.854 383.353 100.456L358.883 129.349Z" fill="#F9AFAB"/>
<path fill-rule="evenodd" clip-rule="evenodd" d="M376.42 89.666C376.42 92.111 378.401 94.093 380.847 94.093C383.291 94.093 385.274 92.111 385.274 89.666C385.274 87.221 383.291 85.239 380.847 85.239C378.401 85.239 376.42 87.221 376.42 89.666" fill="#F49795"/>
<path fill-rule="evenodd" clip-rule="evenodd" d="M350.896 85.9907C351.458 88.9637 352.398 91.6747 353.586 94.0867C355.928 93.9707 357.791 92.0357 357.791 89.6657C357.791 87.2207 355.808 85.2397 353.364 85.2397C352.451 85.2397 351.601 85.5157 350.896 85.9907" fill="#F49795"/>
<path fill-rule="evenodd" clip-rule="evenodd" d="M352.932 82.4761C352.932 79.4691 355.377 77.0231 358.384 77.0231C361.391 77.0231 363.836 79.4691 363.836 82.4761C363.836 85.4821 361.391 87.9281 358.384 87.9281C355.377 87.9281 352.932 85.4821 352.932 82.4761M369.532 82.4761C369.532 79.4691 371.978 77.0231 374.984 77.0231C377.991 77.0231 380.437 79.4691 380.437 82.4761C380.437 85.4821 377.991 87.9281 374.984 87.9281C371.978 87.9281 369.532 85.4821 369.532 82.4761M352.111 82.4761C352.111 85.9351 354.925 88.7491 358.384 88.7491C361.763 88.7491 364.526 86.0621 364.651 82.7131C366.54 81.6421 368.196 82.4061 368.717 82.7061C368.838 86.0591 371.602 88.7491 374.984 88.7491C378.443 88.7491 381.257 85.9351 381.257 82.4761C381.257 79.0171 378.443 76.2031 374.984 76.2031C371.753 76.2031 369.085 78.6581 368.747 81.8011C367.929 81.4251 366.378 80.9771 364.62 81.8041C364.285 78.6601 361.617 76.2031 358.384 76.2031C354.925 76.2031 352.111 79.0171 352.111 82.4761" fill="white"/>
<path fill-rule="evenodd" clip-rule="evenodd" d="M358.38 84.2076C358.874 84.2076 359.275 83.8066 359.275 83.3116V81.6396C359.275 81.1446 358.874 80.7446 358.38 80.7446C357.885 80.7446 357.484 81.1446 357.484 81.6396V83.3116C357.484 83.8066 357.885 84.2076 358.38 84.2076" fill="#311643"/>
<path fill-rule="evenodd" clip-rule="evenodd" d="M374.712 84.2076C375.206 84.2076 375.607 83.8066 375.607 83.3116V81.6396C375.607 81.1446 375.206 80.7446 374.712 80.7446C374.217 80.7446 373.816 81.1446 373.816 81.6396V83.3116C373.816 83.8066 374.217 84.2076 374.712 84.2076" fill="#311643"/>
<path fill-rule="evenodd" clip-rule="evenodd" d="M368.321 97.1201C369.919 97.1201 371.007 96.5191 371.666 95.9721C372.498 95.2821 372.842 94.5291 372.857 94.4971C372.95 94.2901 372.858 94.0481 372.651 93.9541C372.445 93.8621 372.203 93.9531 372.109 94.1591C372.062 94.2601 370.927 96.6401 367.631 96.2591C367.405 96.2321 367.202 96.3941 367.175 96.6191C367.15 96.8441 367.311 97.0481 367.537 97.0741C367.81 97.1051 368.072 97.1201 368.321 97.1201" fill="#311643"/>
<path fill-rule="evenodd" clip-rule="evenodd" d="M400.492 182.017L407.246 210.618C409.196 218.877 409.965 227.371 409.528 235.847L403.261 357.537H385.903L378.493 231.246L341.566 357.537H324.21L354.77 182.017H400.492Z" fill="#6277D7"/>
<path fill-rule="evenodd" clip-rule="evenodd" d="M377.526 121.612C374.444 121.612 371.979 118.645 370.317 115.638H387.892C385.212 118.636 381.541 121.612 377.526 121.612" fill="white"/>
<path fill-rule="evenodd" clip-rule="evenodd" d="M344.64 121.842C347.349 117.625 351.469 114.508 356.264 113.048L367.912 109.501C367.912 109.99 368.764 112.831 370.317 115.638C371.979 118.644 374.444 121.612 377.526 121.612C381.54 121.612 385.211 118.635 387.892 115.638C390.612 112.596 392.311 109.531 392.311 109.531L402.943 114.457C407.764 116.691 411.219 121.105 412.23 126.322L419.315 162.909H404.906L402.812 149.111L400.492 182.016H354.77L350.616 146.994L339.724 156.79L330.69 143.556L344.64 121.842Z" fill="#FE9ECC"/>
<path fill-rule="evenodd" clip-rule="evenodd" d="M330.69 143.557L343.377 153.505L339.724 156.79L330.69 143.557Z" fill="#FF78BA"/>
<path fill-rule="evenodd" clip-rule="evenodd" d="M341.52 270.818C341.52 275.407 345.24 279.127 349.829 279.127C354.416 279.127 358.136 275.407 358.136 270.818C358.136 266.23 354.416 262.51 349.829 262.51C345.24 262.51 341.52 266.23 341.52 270.818" fill="#4A5EA3"/>
<path fill-rule="evenodd" clip-rule="evenodd" d="M385.047 270.818C385.047 275.407 388.767 279.127 393.356 279.127C397.944 279.127 401.664 275.407 401.664 270.818C401.664 266.23 397.944 262.51 393.356 262.51C388.767 262.51 385.047 266.23 385.047 270.818" fill="#4A5EA3"/>
<path fill-rule="evenodd" clip-rule="evenodd" d="M281.066 109.155L296.055 104.018C297.549 103.54 299.176 103.718 300.531 104.509L306.353 107.909L339.724 156.79L335.139 160.979C331.349 164.442 325.298 163.316 323.006 158.722L301.042 114.691L295.585 115.359C294.761 115.46 293.926 115.306 293.192 114.919L291.266 113.9C290.366 113.424 289.677 112.627 289.337 111.668L288.942 110.555L281.627 111.544C281.03 111.635 280.456 111.28 280.27 110.706C280.06 110.058 280.417 109.363 281.066 109.155" fill="#FCBEB7"/>
<path fill-rule="evenodd" clip-rule="evenodd" d="M398.84 213.968L402.204 210.942L404.905 162.91H419.315L410.316 212.567L410.324 223.843C410.239 225.373 409.57 226.813 408.454 227.865L407.058 229.182C405.35 230.792 403.067 231.648 400.721 231.557L398.719 231.48C398.009 231.453 397.589 230.674 397.956 230.065L400.861 225.256L400.615 216.277L399.166 221.512C398.922 222.395 398.035 222.937 397.138 222.752V217.786C397.138 216.33 397.757 214.942 398.84 213.968" fill="#FCBEB7"/>
<path fill-rule="evenodd" clip-rule="evenodd" d="M403.647 119.125C403.647 122.025 405.999 124.377 408.899 124.377C409.842 124.377 410.727 124.128 411.491 123.694C410.254 120.374 407.981 117.533 405.006 115.6C404.163 116.532 403.647 117.769 403.647 119.125" fill="#FF78BA"/>
<path fill-rule="evenodd" clip-rule="evenodd" d="M400.492 182.017H354.77L354.124 185.729L400.781 183.242L400.492 182.017Z" fill="#4A5EA3"/>
<path fill-rule="evenodd" clip-rule="evenodd" d="M324.05 160.303C326.704 163.416 331.485 163.966 334.789 161.279C334.492 158.522 332.157 156.375 329.321 156.375C326.83 156.375 324.726 158.032 324.05 160.303" fill="#F9AFAB"/>
</svg>
